# FamiTracker text export 0.4.2

# Song information
TITLE           "Wedding OST"
AUTHOR          "Mitch Foster"
COPYRIGHT       "2017"

# Song comment
COMMENT ""

# Global settings
MACHINE         0
FRAMERATE       0
EXPANSION       0
VIBRATO         1
SPLIT           32

# Macros
MACRO       0   0  -1  -1   0 : 15 11 9 7
MACRO       0   1  -1  -1   0 : 15 12 9 6 7 6 5 5 4 4 3 3 1 1 1 1 0
MACRO       0   2  -1  -1   0 : 15 15 15 15 14 14 14 14 13
MACRO       0   3  -1  -1   0 : 7 1 1 0
MACRO       0   4  -1  -1   0 : 9 7 2 7 6 1
MACRO       0   5  -1  -1   0 : 10 6 6 5 5 4 4 3 3 3 2 2 2 1 1 1 1 0
MACRO       0   6  -1  -1   0 : 10 7 5 5 4 2 0
MACRO       0   7  -1  -1   0 : 15 10 5 10
MACRO       0   8  -1  -1   0 : 15 11 7 7 7 8 7 3 2 1 0
MACRO       0   9  -1  -1   0 : 15 9 6 6 6 5 5 4 2 1 0
MACRO       0  10  -1  -1   0 : 15 12 12 12 12 12 12 12 11 11 11 11 11 10 10 10 10 10 10 9 9 9 9 9 9 9 9 8 8 8 8 8 8 8 7 7 7 7 7 6 6 6 6 6 6 5 5 5 5 5 4 4 4 4 4 4 3 3 3 3 3 3 3 2 2 2 2 2 2 2 1 1 1 1 1 1 1 1 1 1 0
MACRO       0  11  -1  -1   0 : 1 3 5
MACRO       0  12  -1  -1   0 : 10 7 7 7 7 7 7 7 7 7 7 7 7 6 6 6 6 6 6 6 6 6 6 6 6 6 6 6 6 6 6 6 6 6 6 5 5 5 5 5 5 5 5 5 5 5 5 5 5 5 5 5 5 5 5 5 5 5 5 5 4
MACRO       0  13  -1  -1   0 : 5 5 5 5 5 5 5 5 5 5 5 5 5 5 5 5 5 5 5 5 5 5 5 5 5 5 5 5 5 5 5 5 5 5 5 4 4 4 4 4 4 4 4 4 4 4 4 4 4 4 4 4 4 4 4 4 4 4 4 4 4 4 3 3 3 3 3 3 3 3 3 3 3 3 3 3 3 3 3 3 3 3 3 3 3 3 3 3 3
MACRO       0  14  -1  -1   0 : 2
MACRO       0  15  -1  -1   0 : 4
MACRO       0  16  -1  -1   0 : 1 9 7 6 3 4
MACRO       0  17  -1  -1   0 : 15
MACRO       0  18  -1   3   0 : 4 5 5 4 3 3 2 2 2 1
MACRO       0  19  -1   3   0 : 9 9 6 12 11 6 8 6 5 6
MACRO       0  20  -1  -1   0 : 1 2 1 2 2 4 1 2 1 2
MACRO       0  21  -1   3   0 : 4 5 5 4 3 3 2 2 2 1
MACRO       0  22  -1  -1   0 : 10 7 7 7 7 7 7 7 7 7 7 7 7 6 6 6 6 6 6 6 6 6 6 6 6 6 6 6 6 6 6 6 6 6 6 5 5 5 5 5 5 5 5 5 5 5 5 5 5 5 5 5 5 5 5 5 5 5 5 5 4
MACRO       0  23   2  -1   0 : 3 5 6 7 10 10 10 9 10 9 9 9 9 9 8 8 8 8 8 8 8 7 7 7 7 8 8 8 8 8 8 8 8 8 8 5 6 7 7 8 8 8 8 8
MACRO       0  24  -1  -1   0 : 15 12 9 7 3 1 0 1 0
MACRO       0  25  -1   3   0 : 4 5 5 4 3 3 2 2 2 1
MACRO       0  26  -1  -1   0 : 7 7 5 6 5
MACRO       0  27  -1  -1   0 : 6 2 6
MACRO       0  28  -1  -1   0 : 7
MACRO       0  29  -1  -1   0 : 8
MACRO       1   0  -1  -1   0 : 2 6 3 4 1 0
MACRO       1   1  -1  -1   0 : 12 0
MACRO       1   2  -1  -1   0 : 0 -1
MACRO       1   3  -1  -1   0 : 0 0 0 0 0 0 0 -1
MACRO       1   4  -1  -1   0 : 0 0 0 -1
MACRO       1   5  -1  -1   0 : -3 10 5 -4 3
MACRO       1   6   0  -1   0 : 0 0 2 2 5 5
MACRO       1   7  -1  -1   0 : 1 1 1 0
MACRO       1   8  -1  -1   0 : -6 -5 -4 -3 -2 -1 0
MACRO       1   9   1  -1   0 : 21 9 9 4 4 0 0
MACRO       1  10   1  -1   0 : 23 11 11 4 4 0 0
MACRO       1  11   1  -1   0 : 20 8 8 4 4 0 0
MACRO       1  12   1  -1   0 : 24 12 12 4 4 0 0
MACRO       1  13   1  -1   0 : 26 14 14 4 4 0 0
MACRO       1  14   1  -1   0 : 28 16 16 4 4 0 0
MACRO       1  15   1  -1   0 : 22 10 10 5 5 0 0
MACRO       1  16   1  -1   0 : 24 12 12 7 7 0 0
MACRO       1  17   0  -1   0 : 0 0 4 4 7 7 9 9
MACRO       1  18   0  -1   0 : 0 0 4 4 7 7 11 11
MACRO       1  19   0  -1   0 : 0 0 4 4 8 8 12 12
MACRO       1  20   0  -1   0 : 0 0 3 3 6 6 8 8
MACRO       1  21   0  -1   0 : 8 8 5 5 0 0
MACRO       1  22   0  -1   0 : 7 7 2 2 0
MACRO       1  23   0  -1   0 : 0 0 3 3 5 5 8 8
MACRO       1  24   0  -1   0 : 0 0 2 2 5 5 7 7
MACRO       1  25   0  -1   0 : 0 0 2 2 5 5 9 9
MACRO       1  26   0  -1   0 : 0 0 3 3 7 7 10 10
MACRO       1  27   1  -1   0 : 19 7 7 3 3 0 0
MACRO       1  28   1  -1   0 : 17 5 5 2 2 0 0
MACRO       1  29   1  -1   0 : 20 8 8 5 5 0 0
MACRO       1  30   1  -1   0 : 22 10 10 7 7 0 0
MACRO       1  31   0  -1   0 : 0 0 7 7 9 9 16 16
MACRO       1  32   0  -1   0 : 0 0 3 3 7 7 12 12
MACRO       1  33   1  -1   0 : 0 3 7 3 3 0 0
MACRO       1  34   1  -1   0 : 19 7 7 5 5 0 0
MACRO       1  35   0  -1   0 : 0 4 7 4 0 -3 0 0
MACRO       1  36   0  -1   0 : 7 7 4 4 0 0
MACRO       1  37   0  -1   0 : 0 0 2 2 5 5 6 6
MACRO       1  38   1  -1   0 : 0 3 7 3 3 0 0
MACRO       1  39  -1  -1   0 : 0 0 3 0 6 4 4 4 0 6 4 0 0 6 0 5 0 0 0
MACRO       1  40   0  -1   0 : 0 0 12 12 0 0 5 5 12 12 5 5 8 8 0 0
MACRO       1  41   0  -1   0 : 0 0 0 0 5 5 5 5 7 7 7 7 12 12 12 12 7 7 4 4
MACRO       1  42   0  -1   0 : 0 0 0 0 4 4 4 4 7 7 7 7 10 10 10 10 7 7 7 7 4 4 4 4 0 0 0 0
MACRO       1  43   0  -1   0 : 0 0 0 0 4 4 4 4 7 7 7 7 12 12 12 12 7 7 7 7 4 4 4 4 0 0 0 0
MACRO       2   0   0  -1   0 : 5 0 0 0 -5
MACRO       2   1   0  -1   0 : 3 6 -3 -6 -3 -6 3 6 0
MACRO       2   2  -1  -1   0 : 1
MACRO       2   3  -1  -1   0 : -1
MACRO       2   4  16  -1   0 : 0 0 0 0 0 0 0 0 0 0 0 0 0 0 1 1 0 0 -2 -2 0 0 2 2
MACRO       2   5  16  -1   0 : 0 0 0 0 0 0 0 0 0 0 0 0 0 0 1 1 0 0 -2 -2 0 0 2 2
MACRO       2   6  -1  -1   0 : 0
MACRO       2   7  16  -1   0 : 0 0 0 0 0 0 0 0 0 0 0 0 0 0 1 1 0 0 -2 -2 0 0 2 2
MACRO       2   8  16  -1   0 : 0 0 0 0 0 0 0 0 0 0 0 0 0 0 1 1 0 0 -2 -2 0 0 2 2
MACRO       4   0  -1  -1   0 : 2
MACRO       4   1  -1  -1   0 : 2 2
MACRO       4   2  -1  -1   0 : 0 2
MACRO       4   3  -1  -1   0 : 0 2
MACRO       4   4  -1  -1   0 : 0 2
MACRO       4   5  -1  -1   0 : 0
MACRO       4   6  -1  -1   0 : 0 2
MACRO       4   7  -1  -1   0 : 0 2
MACRO       4   8  -1  -1   0 : 0 2
MACRO       4   9  -1  -1   0 : 0 2
MACRO       4  10  -1  -1   0 : 2
MACRO       4  11  -1  -1   0 : 1
MACRO       4  12  -1  -1   0 : 2 2 2
MACRO       4  13  -1  -1   0 : 2

# DPCM samples

# Instruments
INST2A03   0     0  -1  -1  -1  -1 "Samples"
KEYDPCM   0   3   0     2  15   0     0  -1
KEYDPCM   0   3   1     1  15   0     0  -1
KEYDPCM   0   3   3     3  15   0     0  -1
KEYDPCM   0   3   4     4  15   0     0  -1
KEYDPCM   0   3   5     5  15   0     0  -1
KEYDPCM   0   3   6     6  15   0     0  -1
INST2A03   1     1   0  -1  -1  -1 "Clap Snare"
INST2A03   2     2   1  -1  -1   0 "Square Bass"
INST2A03   3     3   2  -1  -1  -1 "Hihat"
INST2A03   4     4  -1  -1  -1   0 "Blip"
INST2A03   5    17  -1  -1  -1  -1 "Full Volume"
INST2A03   6     5   3  -1  -1  -1 "Ride Cymbal"
INST2A03   7     6   4  -1  -1  -1 "Kick"
INST2A03   8     7  -1   0  -1   1 "Guitar"
INST2A03   9     8   5  -1  -1  -1 "Tech Snare"
INST2A03  10    12   9  -1  -1   1 "9 4 0"
INST2A03  11     9   7  -1  -1  -1 "Classic Snare"
INST2A03  12    10   8  -1  -1  -1 "Slide Cymbal"
INST2A03  13    11  -1  -1  -1   0 "Fade In"
INST2A03  14    20  -1   6  -1   5 "RISZ"
INST2A03  15    26  40   9  -1  10 "Arp_1"
INST2A03  16    13  35   2  -1   2 "0 5 7 12"
INST2A03  17    22  38  -1  -1   7 "5 3 0"
INST2A03  18    24  -1  -1  -1  -1 "Hatz"
INST2A03  19    27  41  -1  -1  11 "Arp_2"
INST2A03  20    28  42  -1  -1  12 "Arp_3"
INST2A03  21    29  43  -1  -1  13 "New instrument"
INST2A03  28    12  27  -1  -1   1 "Cru"
INST2A03  32    13  31   2  -1   2 "keep"
INST2A03  34    12  33  -1  -1   1 "5 3 0"
INST2A03  35    11  -1  -1  -1   0 "Fade In"
INST2A03  37    13  35   2  -1   2 "0 5 7 12"
INST2A03  40    14  -1   2  -1   1 "Quiet V00"
INST2A03  41    15  -1   1  -1  -1 "Vibrato V00"
INST2A03  42    16   1   3  -1   1 "Pluck"
INST2A03  43     0  -1  -1  -1   2 "Lead V01"
KEYDPCM  43   3   0     0  15   0     0  -1
KEYDPCM  43   3   1     1  15   0     0  -1
KEYDPCM  43   3   2     2  15   0     0  -1
KEYDPCM  43   3   3     4  15   0     0  -1
KEYDPCM  43   3   4     3  15   0     0  -1
INST2A03  44    15  -1   1  -1   2 "RISE"
INST2A03  45    15  -1   1  -1   0 "Vibrato V02"
INST2A03  46    19  -1   5  -1   4 "Tron"

# Tracks

TRACK  64   6 150 "Title"
COLUMNS : 1 1 1 1 1

ORDER 00 : 03 03 03 03 03
ORDER 01 : 00 00 04 04 04
ORDER 02 : 02 02 02 02 02
ORDER 03 : 01 01 01 01 01
ORDER 04 : 07 07 08 08 08
ORDER 05 : 06 06 07 07 07
ORDER 06 : 05 05 06 06 06
ORDER 07 : 04 04 05 05 05
ORDER 08 : 08 08 09 09 09
ORDER 09 : 0A 0A 0B 0B 0B
ORDER 0A : 09 09 0A 0A 0A

PATTERN 00
ROW 00 : D-2 2E . ... : D-3 2E . ... : D-3 02 . ... : C-# 06 . ... : --- .. . F03
ROW 01 : --- .. . ... : --- .. . ... : ... .. . ... : ... .. . ... : ... .. . ...
ROW 02 : A-1 2E . ... : A-2 2E . ... : ... .. . ... : ... .. . ... : ... .. . ...
ROW 03 : --- .. . ... : --- .. . ... : ... .. . ... : ... .. . ... : ... .. . ...
ROW 04 : D-2 2E . ... : D-3 2E . ... : --- .. . ... : C-# 03 . ... : ... .. . ...
ROW 05 : --- .. . ... : --- .. . ... : ... .. . ... : ... .. . ... : ... .. . ...
ROW 06 : ... .. . ... : ... .. . ... : ... .. . ... : C-# 03 . ... : ... .. . ...
ROW 07 : ... .. . ... : ... .. . ... : ... .. . ... : ... .. . ... : ... .. . ...
ROW 08 : D-2 2E . ... : D-3 2E . ... : ... .. . ... : ... .. . ... : ... .. . ...
ROW 09 : --- .. . ... : --- .. . ... : ... .. . ... : ... .. . ... : ... .. . ...
ROW 0A : ... .. . ... : ... .. . ... : ... .. . ... : C-# 03 . ... : ... .. . ...
ROW 0B : ... .. . ... : ... .. . ... : ... .. . ... : ... .. . ... : ... .. . ...
ROW 0C : A-2 2E . ... : A-3 2E . ... : A-2 02 . ... : C-# 06 . ... : ... .. . ...
ROW 0D : --- .. . ... : --- .. . ... : ... .. . ... : ... .. . ... : ... .. . ...
ROW 0E : D-2 2E . ... : D-3 2E . ... : ... .. . ... : ... .. . ... : ... .. . ...
ROW 0F : --- .. . ... : --- .. . ... : ... .. . ... : ... .. . ... : ... .. . ...
ROW 10 : A-2 2E . ... : A-3 2E . ... : --- .. . ... : C-# 03 . ... : ... .. . ...
ROW 11 : --- .. . ... : --- .. . ... : ... .. . ... : ... .. . ... : ... .. . ...
ROW 12 : ... .. . ... : ... .. . ... : ... .. . ... : C-# 03 . ... : ... .. . ...
ROW 13 : ... .. . ... : ... .. . ... : ... .. . ... : ... .. . ... : ... .. . ...
ROW 14 : A-2 2E . ... : A-3 2E . ... : ... .. . ... : ... .. . ... : ... .. . ...
ROW 15 : --- .. . ... : --- .. . ... : ... .. . ... : ... .. . ... : ... .. . ...
ROW 16 : ... .. . ... : ... .. . ... : ... .. . ... : C-# 03 . ... : ... .. . ...
ROW 17 : ... .. . ... : ... .. . ... : ... .. . ... : ... .. . ... : ... .. . ...
ROW 18 : G-2 2E . ... : G-3 2E . ... : D-3 02 . ... : C-# 06 . ... : ... .. . ...
ROW 19 : --- .. . ... : --- .. . ... : ... .. . ... : ... .. . ... : ... .. . ...
ROW 1A : E-2 2E . ... : E-3 2E . ... : ... .. . ... : ... .. . ... : ... .. . ...
ROW 1B : --- .. . ... : --- .. . ... : ... .. . ... : ... .. . ... : ... .. . ...
ROW 1C : G-2 2E . ... : G-3 2E . ... : --- .. . ... : C-# 03 . ... : ... .. . ...
ROW 1D : ... .. . ... : ... .. . ... : ... .. . ... : ... .. . ... : ... .. . ...
ROW 1E : A-2 2E . ... : A-3 2E . ... : F-3 04 . ... : C-# 03 . ... : ... .. . ...
ROW 1F : ... .. . ... : ... .. . ... : ... .. . ... : ... .. . ... : ... .. . ...
ROW 20 : ... .. . ... : ... .. . ... : ... .. . ... : ... .. . ... : ... .. . ...
ROW 21 : ... .. . ... : ... .. . ... : ... .. . ... : ... .. . ... : ... .. . ...
ROW 22 : ... .. . ... : ... .. . ... : --- .. . ... : C-# 03 . ... : ... .. . ...
ROW 23 : ... .. . ... : ... .. . ... : ... .. . ... : ... .. . ... : ... .. . ...
ROW 24 : G-2 2E . ... : G-3 2E . ... : E-3 04 . ... : C-# 06 . ... : ... .. . ...
ROW 25 : ... .. . ... : ... .. . ... : ... .. . ... : ... .. . ... : ... .. . ...
ROW 26 : ... .. . ... : ... .. . ... : ... .. . ... : ... .. . ... : ... .. . ...
ROW 27 : ... .. . ... : ... .. . ... : ... .. . ... : ... .. . ... : ... .. . ...
ROW 28 : ... .. . ... : ... .. . ... : --- .. . ... : C-# 03 . ... : ... .. . ...
ROW 29 : ... .. . ... : ... .. . ... : ... .. . ... : ... .. . ... : ... .. . ...
ROW 2A : ... .. . ... : ... .. . ... : C-3 04 . ... : C-# 03 . ... : ... .. . ...
ROW 2B : ... .. . ... : ... .. . ... : ... .. . ... : ... .. . ... : ... .. . ...
ROW 2C : ... .. . ... : ... .. . ... : ... .. . ... : ... .. . ... : ... .. . ...
ROW 2D : ... .. . ... : ... .. . ... : ... .. . ... : ... .. . ... : ... .. . ...
ROW 2E : ... .. . ... : ... .. . ... : --- .. . ... : C-# 03 . ... : ... .. . ...
ROW 2F : ... .. . ... : ... .. . ... : ... .. . D00 : ... .. . ... : ... .. . ...
ROW 30 : ... .. . ... : ... .. . ... : ... .. . ... : ... .. . ... : ... .. . ...
ROW 31 : ... .. . ... : ... .. . ... : ... .. . ... : ... .. . ... : ... .. . ...
ROW 32 : ... .. . ... : ... .. . ... : ... .. . ... : ... .. . ... : ... .. . ...
ROW 33 : ... .. . ... : ... .. . ... : ... .. . ... : ... .. . ... : ... .. . ...
ROW 34 : ... .. . ... : ... .. . ... : ... .. . ... : ... .. . ... : ... .. . ...
ROW 35 : ... .. . ... : ... .. . ... : ... .. . ... : ... .. . ... : ... .. . ...
ROW 36 : ... .. . ... : ... .. . ... : ... .. . ... : ... .. . ... : ... .. . ...
ROW 37 : ... .. . ... : ... .. . ... : ... .. . ... : ... .. . ... : ... .. . ...
ROW 38 : ... .. . ... : ... .. . ... : ... .. . ... : ... .. . ... : ... .. . ...
ROW 39 : ... .. . ... : ... .. . ... : ... .. . ... : ... .. . ... : ... .. . ...
ROW 3A : ... .. . ... : ... .. . ... : ... .. . ... : ... .. . ... : ... .. . ...
ROW 3B : ... .. . ... : ... .. . ... : ... .. . ... : ... .. . ... : ... .. . ...
ROW 3C : ... .. . ... : ... .. . ... : ... .. . ... : ... .. . ... : ... .. . ...
ROW 3D : ... .. . ... : ... .. . ... : ... .. . ... : ... .. . ... : ... .. . ...
ROW 3E : ... .. . ... : ... .. . ... : ... .. . ... : ... .. . ... : ... .. . ...
ROW 3F : ... .. . ... : ... .. . ... : ... .. . ... : ... .. . ... : ... .. . ...

PATTERN 01
ROW 00 : A-2 2E . ... : A-1 2E . ... : D-3 02 . ... : C-# 06 . ... : --- .. . F03
ROW 01 : A#2 2E . ... : A#1 2E . ... : ... .. . ... : ... .. . ... : ... .. . ...
ROW 02 : A-2 2E . ... : A-1 2E . ... : ... .. . ... : ... .. . ... : ... .. . ...
ROW 03 : ... .. . ... : ... .. . ... : ... .. . ... : ... .. . ... : ... .. . ...
ROW 04 : A-2 2E . ... : A-1 2E . ... : --- .. . ... : C-# 03 . ... : ... .. . ...
ROW 05 : G-2 2E . ... : G-1 2E . ... : ... .. . ... : ... .. . ... : ... .. . ...
ROW 06 : A-2 2E . ... : A-1 2E . ... : ... .. . ... : C-# 03 . ... : ... .. . ...
ROW 07 : ... .. . ... : ... .. . ... : ... .. . ... : ... .. . ... : ... .. . ...
ROW 08 : G-2 2E . ... : G-1 2E . ... : ... .. . ... : ... .. . ... : ... .. . ...
ROW 09 : F-2 2E . ... : F-1 2E . ... : ... .. . ... : ... .. . ... : ... .. . ...
ROW 0A : G-2 2E . ... : G-1 2E . ... : ... .. . ... : C-# 03 . ... : ... .. . ...
ROW 0B : ... .. . ... : ... .. . ... : ... .. . ... : ... .. . ... : ... .. . ...
ROW 0C : F-2 2E . ... : F-1 2E . ... : A-2 02 . ... : C-# 06 . ... : ... .. . ...
ROW 0D : E-2 2E . ... : E-1 2E . ... : ... .. . ... : ... .. . ... : ... .. . ...
ROW 0E : F-2 2E . ... : F-1 2E . ... : ... .. . ... : ... .. . ... : ... .. . ...
ROW 0F : ... .. . ... : ... .. . ... : ... .. . ... : ... .. . ... : ... .. . ...
ROW 10 : E-2 2E . ... : E-1 2E . ... : --- .. . ... : C-# 03 . ... : ... .. . ...
ROW 11 : D-2 2E . ... : D-1 2E . ... : ... .. . ... : ... .. . ... : ... .. . ...
ROW 12 : ... .. . ... : ... .. . ... : ... .. . ... : C-# 03 . ... : ... .. . ...
ROW 13 : ... .. . ... : ... .. . ... : ... .. . ... : ... .. . ... : ... .. . ...
ROW 14 : ... .. . ... : ... .. . ... : ... .. . ... : ... .. . ... : ... .. . ...
ROW 15 : ... .. . ... : ... .. . ... : ... .. . ... : ... .. . ... : ... .. . ...
ROW 16 : ... .. . ... : ... .. . ... : ... .. . ... : C-# 03 . ... : ... .. . ...
ROW 17 : ... .. . ... : ... .. . ... : ... .. . ... : ... .. . ... : ... .. . ...
ROW 18 : C-2 2E . ... : C-1 2E . ... : G-2 2E . ... : C-# 06 . ... : ... .. . ...
ROW 19 : ... .. . ... : ... .. . ... : ... .. . ... : ... .. . ... : ... .. . ...
ROW 1A : ... .. . ... : ... .. . ... : ... .. . ... : ... .. . ... : ... .. . ...
ROW 1B : ... .. . ... : ... .. . ... : ... .. . ... : ... .. . ... : ... .. . ...
ROW 1C : ... .. . ... : ... .. . ... : --- .. . ... : C-# 03 . ... : ... .. . ...
ROW 1D : ... .. . ... : ... .. . ... : ... .. . ... : ... .. . ... : ... .. . ...
ROW 1E : C#2 2E . ... : C#1 2E . ... : F#2 2E . ... : C-# 03 . ... : ... .. . ...
ROW 1F : ... .. . ... : ... .. . ... : ... .. . ... : ... .. . ... : ... .. . ...
ROW 20 : ... .. . ... : ... .. . ... : ... .. . ... : ... .. . ... : ... .. . ...
ROW 21 : ... .. . ... : ... .. . ... : ... .. . ... : ... .. . ... : ... .. . ...
ROW 22 : ... .. . ... : ... .. . ... : --- .. . ... : C-# 03 . ... : ... .. . ...
ROW 23 : ... .. . ... : ... .. . ... : ... .. . ... : ... .. . ... : ... .. . ...
ROW 24 : E-2 2E . ... : E-1 2E . ... : E-2 04 . ... : C-# 06 . ... : ... .. . ...
ROW 25 : ... .. . ... : ... .. . ... : ... .. . ... : ... .. . ... : ... .. . ...
ROW 26 : ... .. . ... : ... .. . ... : ... .. . ... : ... .. . ... : ... .. . ...
ROW 27 : ... .. . ... : ... .. . ... : ... .. . ... : ... .. . ... : ... .. . ...
ROW 28 : ... .. . ... : ... .. . ... : ... .. . ... : C-# 03 . ... : ... .. . ...
ROW 29 : ... .. . ... : ... .. . ... : ... .. . ... : ... .. . ... : ... .. . ...
ROW 2A : ... .. . ... : ... .. . ... : ... .. . ... : C-# 03 . ... : ... .. . ...
ROW 2B : ... .. . ... : ... .. . ... : ... .. . ... : ... .. . ... : ... .. . ...
ROW 2C : ... .. . ... : ... .. . ... : ... .. . ... : ... .. . ... : ... .. . ...
ROW 2D : ... .. . ... : ... .. . ... : ... .. . ... : ... .. . ... : ... .. . ...
ROW 2E : ... .. . ... : ... .. . ... : ... .. . ... : C-# 03 . ... : ... .. . ...
ROW 2F : ... .. . ... : ... .. . ... : ... .. . D00 : ... .. . ... : ... .. . ...
ROW 30 : ... .. . ... : ... .. . ... : ... .. . ... : ... .. . ... : ... .. . ...
ROW 31 : ... .. . ... : ... .. . ... : ... .. . ... : ... .. . ... : ... .. . ...
ROW 32 : ... .. . ... : ... .. . ... : ... .. . ... : ... .. . ... : ... .. . ...
ROW 33 : ... .. . ... : ... .. . ... : ... .. . ... : ... .. . ... : ... .. . ...
ROW 34 : ... .. . ... : ... .. . ... : ... .. . ... : ... .. . ... : ... .. . ...
ROW 35 : ... .. . ... : ... .. . ... : ... .. . ... : ... .. . ... : ... .. . ...
ROW 36 : ... .. . ... : ... .. . ... : ... .. . ... : ... .. . ... : ... .. . ...
ROW 37 : ... .. . ... : ... .. . ... : ... .. . ... : ... .. . ... : ... .. . ...
ROW 38 : ... .. . ... : ... .. . ... : ... .. . ... : ... .. . ... : ... .. . ...
ROW 39 : ... .. . ... : ... .. . ... : ... .. . ... : ... .. . ... : ... .. . ...
ROW 3A : ... .. . ... : ... .. . ... : ... .. . ... : ... .. . ... : ... .. . ...
ROW 3B : ... .. . ... : ... .. . ... : ... .. . ... : ... .. . ... : ... .. . ...
ROW 3C : ... .. . ... : ... .. . ... : ... .. . ... : ... .. . ... : ... .. . ...
ROW 3D : ... .. . ... : ... .. . ... : ... .. . ... : ... .. . ... : ... .. . ...
ROW 3E : ... .. . ... : ... .. . ... : ... .. . ... : ... .. . ... : ... .. . ...
ROW 3F : ... .. . ... : ... .. . ... : ... .. . ... : ... .. . ... : ... .. . ...

PATTERN 02
ROW 00 : D-2 2E . ... : D-3 2E . ... : D-3 02 . ... : C-# 06 . ... : --- .. . F03
ROW 01 : --- .. . ... : --- .. . ... : ... .. . ... : ... .. . ... : ... .. . ...
ROW 02 : ... .. . ... : ... .. . ... : ... .. . ... : ... .. . ... : ... .. . ...
ROW 03 : D-2 2E . ... : D-3 2E . ... : ... .. . ... : ... .. . ... : ... .. . ...
ROW 04 : --- .. . ... : --- .. . ... : --- .. . ... : C-# 03 . ... : ... .. . ...
ROW 05 : ... .. . ... : ... .. . ... : ... .. . ... : ... .. . ... : ... .. . ...
ROW 06 : D-2 2E . ... : D-3 2E . ... : ... .. . ... : C-# 03 . ... : ... .. . ...
ROW 07 : --- .. . ... : --- .. . ... : ... .. . ... : ... .. . ... : ... .. . ...
ROW 08 : E-2 2E . ... : E-3 2E . ... : ... .. . ... : ... .. . ... : ... .. . ...
ROW 09 : --- .. . ... : --- .. . ... : ... .. . ... : ... .. . ... : ... .. . ...
ROW 0A : ... .. . ... : ... .. . ... : ... .. . ... : C-# 03 . ... : ... .. . ...
ROW 0B : E-2 2E . ... : E-3 2E . ... : ... .. . ... : ... .. . ... : ... .. . ...
ROW 0C : --- .. . ... : --- .. . ... : A-2 02 . ... : C-# 06 . ... : ... .. . ...
ROW 0D : ... .. . ... : ... .. . ... : ... .. . ... : ... .. . ... : ... .. . ...
ROW 0E : E-2 2E . ... : E-3 2E . ... : ... .. . ... : ... .. . ... : ... .. . ...
ROW 0F : --- .. . ... : --- .. . ... : ... .. . ... : ... .. . ... : ... .. . ...
ROW 10 : F-2 2E . ... : F-3 2E . ... : --- .. . ... : C-# 03 . ... : ... .. . ...
ROW 11 : --- .. . ... : --- .. . ... : ... .. . ... : ... .. . ... : ... .. . ...
ROW 12 : ... .. . ... : ... .. . ... : ... .. . ... : C-# 03 . ... : ... .. . ...
ROW 13 : F-2 2E . ... : F-3 2E . ... : ... .. . ... : ... .. . ... : ... .. . ...
ROW 14 : --- .. . ... : --- .. . ... : ... .. . ... : ... .. . ... : ... .. . ...
ROW 15 : ... .. . ... : ... .. . ... : ... .. . ... : ... .. . ... : ... .. . ...
ROW 16 : F-2 2E . ... : F-3 2E . ... : ... .. . ... : C-# 03 . ... : ... .. . ...
ROW 17 : --- .. . ... : --- .. . ... : ... .. . ... : ... .. . ... : ... .. . ...
ROW 18 : G-2 2E . ... : G-3 2E . ... : D-3 02 . ... : C-# 06 . ... : ... .. . ...
ROW 19 : --- .. . ... : --- .. . ... : ... .. . ... : ... .. . ... : ... .. . ...
ROW 1A : ... .. . ... : ... .. . ... : ... .. . ... : ... .. . ... : ... .. . ...
ROW 1B : G-2 2E . ... : G-3 2E . ... : ... .. . ... : ... .. . ... : ... .. . ...
ROW 1C : --- .. . ... : --- .. . ... : --- .. . ... : C-# 03 . ... : ... .. . ...
ROW 1D : ... .. . ... : ... .. . ... : ... .. . ... : ... .. . ... : ... .. . ...
ROW 1E : G-2 2E . ... : G-3 2E . ... : C-3 2E . ... : C-# 03 . ... : ... .. . ...
ROW 1F : --- .. . ... : --- .. . ... : ... .. . ... : ... .. . ... : ... .. . ...
ROW 20 : A-2 2E . ... : A-3 2E . ... : ... .. . ... : ... .. . ... : ... .. . ...
ROW 21 : --- .. . ... : --- .. . ... : ... .. . ... : ... .. . ... : ... .. . ...
ROW 22 : ... .. . ... : ... .. . ... : --- .. . ... : C-# 03 . ... : ... .. . ...
ROW 23 : A-2 2E . ... : A-3 2E . ... : ... .. . ... : ... .. . ... : ... .. . ...
ROW 24 : --- .. . ... : --- .. . ... : E-3 04 . ... : C-# 06 . ... : ... .. . ...
ROW 25 : ... .. . ... : ... .. . ... : ... .. . ... : ... .. . ... : ... .. . ...
ROW 26 : A-2 2E . ... : A-3 2E . ... : ... .. . ... : ... .. . ... : ... .. . ...
ROW 27 : --- .. . ... : --- .. . ... : ... .. . ... : ... .. . ... : ... .. . ...
ROW 28 : A#2 2E . ... : A#3 2E . ... : --- .. . ... : C-# 03 . ... : ... .. . ...
ROW 29 : --- .. . ... : --- .. . ... : ... .. . ... : ... .. . ... : ... .. . ...
ROW 2A : ... .. . ... : ... .. . ... : G-3 2E . ... : C-# 03 . ... : ... .. . ...
ROW 2B : A#2 2E . ... : A#3 2E . ... : ... .. . ... : ... .. . ... : ... .. . ...
ROW 2C : A-2 2E . ... : A-3 2E . ... : ... .. . ... : ... .. . ... : ... .. . ...
ROW 2D : ... .. . ... : ... .. . ... : ... .. . ... : ... .. . ... : ... .. . ...
ROW 2E : ... .. . ... : ... .. . ... : --- .. . ... : C-# 03 . ... : ... .. . ...
ROW 2F : ... .. . ... : ... .. . ... : ... .. . D00 : ... .. . ... : ... .. . ...
ROW 30 : ... .. . ... : ... .. . ... : ... .. . ... : ... .. . ... : ... .. . ...
ROW 31 : ... .. . ... : ... .. . ... : ... .. . ... : ... .. . ... : ... .. . ...
ROW 32 : ... .. . ... : ... .. . ... : ... .. . ... : ... .. . ... : ... .. . ...
ROW 33 : ... .. . ... : ... .. . ... : ... .. . ... : ... .. . ... : ... .. . ...
ROW 34 : ... .. . ... : ... .. . ... : ... .. . ... : ... .. . ... : ... .. . ...
ROW 35 : ... .. . ... : ... .. . ... : ... .. . ... : ... .. . ... : ... .. . ...
ROW 36 : ... .. . ... : ... .. . ... : ... .. . ... : ... .. . ... : ... .. . ...
ROW 37 : ... .. . ... : ... .. . ... : ... .. . ... : ... .. . ... : ... .. . ...
ROW 38 : ... .. . ... : ... .. . ... : ... .. . ... : ... .. . ... : ... .. . ...
ROW 39 : ... .. . ... : ... .. . ... : ... .. . ... : ... .. . ... : ... .. . ...
ROW 3A : ... .. . ... : ... .. . ... : ... .. . ... : ... .. . ... : ... .. . ...
ROW 3B : ... .. . ... : ... .. . ... : ... .. . ... : ... .. . ... : ... .. . ...
ROW 3C : ... .. . ... : ... .. . ... : ... .. . ... : ... .. . ... : ... .. . ...
ROW 3D : ... .. . ... : ... .. . ... : ... .. . ... : ... .. . ... : ... .. . ...
ROW 3E : ... .. . ... : ... .. . ... : ... .. . ... : ... .. . ... : ... .. . ...
ROW 3F : ... .. . ... : ... .. . ... : ... .. . ... : ... .. . ... : ... .. . ...

PATTERN 03
ROW 00 : D-3 13 . ... : F-2 2E . ... : D-3 02 . ... : C-# 06 . ... : --- .. . F03
ROW 01 : ... .. . ... : --- .. . ... : ... .. . ... : ... .. . ... : ... .. . ...
ROW 02 : ... .. . ... : ... .. . ... : ... .. . ... : ... .. . ... : ... .. . ...
ROW 03 : ... .. . ... : ... .. . ... : ... .. . ... : ... .. . ... : ... .. . ...
ROW 04 : ... .. . ... : ... .. . ... : --- .. . ... : C-# 03 . ... : ... .. . ...
ROW 05 : ... .. . ... : ... .. . ... : ... .. . ... : ... .. . ... : ... .. . ...
ROW 06 : ... .. . ... : ... .. . ... : ... .. . ... : C-# 03 . ... : ... .. . ...
ROW 07 : ... .. . ... : ... .. . ... : ... .. . ... : ... .. . ... : ... .. . ...
ROW 08 : ... .. . ... : ... .. . ... : ... .. . ... : ... .. . ... : ... .. . ...
ROW 09 : ... .. . ... : ... .. . ... : ... .. . ... : ... .. . ... : ... .. . ...
ROW 0A : ... .. . ... : ... .. . ... : ... .. . ... : C-# 03 . ... : ... .. . ...
ROW 0B : ... .. . ... : ... .. . ... : ... .. . ... : ... .. . ... : ... .. . ...
ROW 0C : ... .. . ... : ... .. . ... : A-2 02 . ... : C-# 06 . ... : ... .. . ...
ROW 0D : ... .. . ... : ... .. . ... : ... .. . ... : ... .. . ... : ... .. . ...
ROW 0E : ... .. . ... : ... .. . ... : ... .. . ... : ... .. . ... : ... .. . ...
ROW 0F : ... .. . ... : ... .. . ... : ... .. . ... : ... .. . ... : ... .. . ...
ROW 10 : ... .. . ... : ... .. . ... : --- .. . ... : C-# 03 . ... : ... .. . ...
ROW 11 : ... .. . ... : ... .. . ... : ... .. . ... : ... .. . ... : ... .. . ...
ROW 12 : ... .. . ... : ... .. . ... : ... .. . ... : C-# 03 . ... : ... .. . ...
ROW 13 : ... .. . ... : ... .. . ... : ... .. . ... : ... .. . ... : ... .. . ...
ROW 14 : ... .. . ... : ... .. . ... : ... .. . ... : ... .. . ... : ... .. . ...
ROW 15 : ... .. . ... : ... .. . ... : ... .. . ... : ... .. . ... : ... .. . ...
ROW 16 : D-3 2E . ... : ... .. . ... : ... .. . ... : C-# 03 . ... : ... .. . ...
ROW 17 : ... .. . ... : ... .. . ... : ... .. . ... : ... .. . ... : ... .. . ...
ROW 18 : G-3 2E . ... : ... .. . ... : D-3 02 . ... : C-# 06 . ... : ... .. . ...
ROW 19 : ... .. . ... : ... .. . ... : ... .. . ... : ... .. . ... : ... .. . ...
ROW 1A : F-3 2E . ... : ... .. . ... : ... .. . ... : ... .. . ... : ... .. . ...
ROW 1B : ... .. . ... : ... .. . ... : ... .. . ... : ... .. . ... : ... .. . ...
ROW 1C : E-3 2E . ... : ... .. . ... : --- .. . ... : C-# 03 . ... : ... .. . ...
ROW 1D : F-3 2E . ... : ... .. . ... : ... .. . ... : ... .. . ... : ... .. . ...
ROW 1E : G-3 2E . ... : ... .. . ... : C-3 2E . ... : C-# 03 . ... : ... .. . ...
ROW 1F : ... .. . ... : ... .. . ... : ... .. . ... : ... .. . ... : ... .. . ...
ROW 20 : F-3 2E . ... : ... .. . ... : ... .. . ... : ... .. . ... : ... .. . ...
ROW 21 : ... .. . ... : ... .. . ... : ... .. . ... : ... .. . ... : ... .. . ...
ROW 22 : E-3 2E . ... : ... .. . ... : --- .. . ... : C-# 03 . ... : ... .. . ...
ROW 23 : ... .. . ... : ... .. . ... : ... .. . ... : ... .. . ... : ... .. . ...
ROW 24 : ... .. . ... : ... .. . ... : E-3 04 . ... : C-# 06 . ... : ... .. . ...
ROW 25 : ... .. . ... : ... .. . ... : ... .. . ... : ... .. . ... : ... .. . ...
ROW 26 : ... .. . ... : ... .. . ... : ... .. . ... : ... .. . ... : ... .. . ...
ROW 27 : ... .. . ... : ... .. . ... : ... .. . ... : ... .. . ... : ... .. . ...
ROW 28 : E-3 2D . ... : E-4 2D . ... : --- .. . ... : C-# 03 . ... : ... .. . ...
ROW 29 : ... .. . ... : ... .. . ... : ... .. . ... : ... .. . ... : ... .. . ...
ROW 2A : ... .. . ... : ... .. . ... : G-3 2E . ... : C-# 03 . ... : ... .. . ...
ROW 2B : ... .. . ... : ... .. . ... : ... .. . ... : ... .. . ... : ... .. . ...
ROW 2C : ... .. . ... : ... .. . ... : ... .. . ... : ... .. . ... : ... .. . ...
ROW 2D : ... .. . ... : ... .. . ... : ... .. . ... : ... .. . ... : ... .. . ...
ROW 2E : ... .. . ... : ... .. . ... : --- .. . ... : C-# 03 . ... : ... .. . ...
ROW 2F : ... .. . ... : ... .. . ... : ... .. . D00 : ... .. . ... : ... .. . ...
ROW 30 : ... .. . ... : ... .. . ... : ... .. . ... : ... .. . ... : ... .. . ...
ROW 31 : ... .. . ... : ... .. . ... : ... .. . ... : ... .. . ... : ... .. . ...
ROW 32 : ... .. . ... : ... .. . ... : ... .. . ... : ... .. . ... : ... .. . ...
ROW 33 : ... .. . ... : ... .. . ... : ... .. . ... : ... .. . ... : ... .. . ...
ROW 34 : ... .. . ... : ... .. . ... : ... .. . ... : ... .. . ... : ... .. . ...
ROW 35 : ... .. . ... : ... .. . ... : ... .. . ... : ... .. . ... : ... .. . ...
ROW 36 : ... .. . ... : ... .. . ... : ... .. . ... : ... .. . ... : ... .. . ...
ROW 37 : ... .. . ... : ... .. . ... : ... .. . ... : ... .. . ... : ... .. . ...
ROW 38 : ... .. . ... : ... .. . ... : ... .. . ... : ... .. . ... : ... .. . ...
ROW 39 : ... .. . ... : ... .. . ... : ... .. . ... : ... .. . ... : ... .. . ...
ROW 3A : ... .. . ... : ... .. . ... : ... .. . ... : ... .. . ... : ... .. . ...
ROW 3B : ... .. . ... : ... .. . ... : ... .. . ... : ... .. . ... : ... .. . ...
ROW 3C : ... .. . ... : ... .. . ... : ... .. . ... : ... .. . ... : ... .. . ...
ROW 3D : ... .. . ... : ... .. . ... : ... .. . ... : ... .. . ... : ... .. . ...
ROW 3E : ... .. . ... : ... .. . ... : ... .. . ... : ... .. . ... : ... .. . ...
ROW 3F : ... .. . ... : ... .. . ... : ... .. . ... : ... .. . ... : ... .. . ...

PATTERN 04
ROW 00 : D-2 11 . ... : A-2 2E . ... : D-3 02 . ... : C-# 06 . ... : --- .. . F03
ROW 01 : ... .. . ... : ... .. . ... : ... .. . ... : ... .. . ... : ... .. . ...
ROW 02 : ... .. . ... : ... .. . ... : ... .. . ... : ... .. . ... : ... .. . ...
ROW 03 : D-2 11 . ... : A-2 2E . ... : ... .. . ... : ... .. . ... : ... .. . ...
ROW 04 : ... .. . ... : ... .. . ... : --- .. . ... : C-# 03 . ... : ... .. . ...
ROW 05 : ... .. . ... : ... .. . ... : ... .. . ... : ... .. . ... : ... .. . ...
ROW 06 : D-2 11 . ... : A-2 2E . ... : ... .. . ... : C-# 03 . ... : ... .. . ...
ROW 07 : ... .. . ... : ... .. . ... : ... .. . ... : ... .. . ... : ... .. . ...
ROW 08 : ... .. . ... : ... .. . ... : ... .. . ... : ... .. . ... : ... .. . ...
ROW 09 : ... .. . ... : ... .. . ... : ... .. . ... : ... .. . ... : ... .. . ...
ROW 0A : ... .. . ... : ... .. . ... : ... .. . ... : C-# 03 . ... : ... .. . ...
ROW 0B : ... .. . ... : ... .. . ... : ... .. . ... : ... .. . ... : ... .. . ...
ROW 0C : ... .. . ... : A-2 2E . ... : A-2 02 . ... : C-# 06 . ... : ... .. . ...
ROW 0D : ... .. . ... : ... .. . ... : ... .. . ... : ... .. . ... : ... .. . ...
ROW 0E : ... .. . ... : ... .. . ... : ... .. . ... : ... .. . ... : ... .. . ...
ROW 0F : ... .. . ... : ... .. . ... : ... .. . ... : ... .. . ... : ... .. . ...
ROW 10 : ... .. . ... : ... .. . ... : --- .. . ... : C-# 03 . ... : ... .. . ...
ROW 11 : ... .. . ... : ... .. . ... : ... .. . ... : ... .. . ... : ... .. . ...
ROW 12 : ... .. . ... : ... .. . ... : ... .. . ... : C-# 03 . ... : ... .. . ...
ROW 13 : ... .. . ... : ... .. . ... : ... .. . ... : ... .. . ... : ... .. . ...
ROW 14 : ... .. . ... : ... .. . ... : ... .. . ... : ... .. . ... : ... .. . ...
ROW 15 : ... .. . ... : ... .. . ... : ... .. . ... : ... .. . ... : ... .. . ...
ROW 16 : ... .. . ... : ... .. . ... : ... .. . ... : C-# 03 . ... : ... .. . ...
ROW 17 : ... .. . ... : ... .. . ... : ... .. . ... : ... .. . ... : ... .. . ...
ROW 18 : A#2 11 . ... : A#2 2E . ... : G-2 2E . ... : C-# 06 . ... : ... .. . ...
ROW 19 : ... .. . ... : ... .. . ... : ... .. . ... : ... .. . ... : ... .. . ...
ROW 1A : ... .. . ... : ... .. . ... : ... .. . ... : ... .. . ... : ... .. . ...
ROW 1B : ... .. . ... : ... .. . ... : ... .. . ... : ... .. . ... : ... .. . ...
ROW 1C : ... .. . ... : ... .. . ... : --- .. . ... : C-# 03 . ... : ... .. . ...
ROW 1D : ... .. . ... : ... .. . ... : ... .. . ... : ... .. . ... : ... .. . ...
ROW 1E : ... .. . ... : G-2 2E . ... : F#2 2E . ... : C-# 03 . ... : ... .. . ...
ROW 1F : ... .. . ... : ... .. . ... : ... .. . ... : ... .. . ... : ... .. . ...
ROW 20 : ... .. . ... : ... .. . ... : ... .. . ... : ... .. . ... : ... .. . ...
ROW 21 : ... .. . ... : ... .. . ... : ... .. . ... : ... .. . ... : ... .. . ...
ROW 22 : ... .. . ... : ... .. . ... : --- .. . ... : C-# 03 . ... : ... .. . ...
ROW 23 : ... .. . ... : ... .. . ... : ... .. . ... : ... .. . ... : ... .. . ...
ROW 24 : ... .. . ... : A-2 2E . ... : E-2 04 . ... : C-# 06 . ... : ... .. . ...
ROW 25 : ... .. . ... : ... .. . ... : ... .. . ... : ... .. . ... : ... .. . ...
ROW 26 : ... .. . ... : ... .. . ... : ... .. . ... : ... .. . ... : ... .. . ...
ROW 27 : ... .. . ... : ... .. . ... : ... .. . ... : ... .. . ... : ... .. . ...
ROW 28 : ... .. . ... : ... .. . ... : ... .. . ... : C-# 03 . ... : ... .. . ...
ROW 29 : ... .. . ... : ... .. . ... : ... .. . ... : ... .. . ... : ... .. . ...
ROW 2A : ... .. . ... : ... .. . ... : ... .. . ... : C-# 03 . ... : ... .. . ...
ROW 2B : ... .. . ... : ... .. . ... : ... .. . ... : ... .. . ... : ... .. . ...
ROW 2C : A-2 2E . ... : G-2 2E . ... : ... .. . ... : ... .. . ... : ... .. . ...
ROW 2D : ... .. . ... : ... .. . ... : ... .. . ... : ... .. . ... : ... .. . ...
ROW 2E : ... .. . ... : ... .. . ... : ... .. . ... : C-# 03 . ... : ... .. . ...
ROW 2F : ... .. . ... : ... .. . ... : ... .. . D00 : ... .. . ... : ... .. . ...
ROW 30 : ... .. . ... : ... .. . ... : ... .. . ... : ... .. . ... : ... .. . ...
ROW 31 : ... .. . ... : ... .. . ... : ... .. . ... : ... .. . ... : ... .. . ...
ROW 32 : ... .. . ... : ... .. . ... : ... .. . ... : ... .. . ... : ... .. . ...
ROW 33 : ... .. . ... : ... .. . ... : ... .. . ... : ... .. . ... : ... .. . ...
ROW 34 : ... .. . ... : ... .. . ... : ... .. . ... : ... .. . ... : ... .. . ...
ROW 35 : ... .. . ... : ... .. . ... : ... .. . ... : ... .. . ... : ... .. . ...
ROW 36 : ... .. . ... : ... .. . ... : ... .. . ... : ... .. . ... : ... .. . ...
ROW 37 : ... .. . ... : ... .. . ... : ... .. . ... : ... .. . ... : ... .. . ...
ROW 38 : ... .. . ... : ... .. . ... : ... .. . ... : ... .. . ... : ... .. . ...
ROW 39 : ... .. . ... : ... .. . ... : ... .. . ... : ... .. . ... : ... .. . ...
ROW 3A : ... .. . ... : ... .. . ... : ... .. . ... : ... .. . ... : ... .. . ...
ROW 3B : ... .. . ... : ... .. . ... : ... .. . ... : ... .. . ... : ... .. . ...
ROW 3C : ... .. . ... : ... .. . ... : ... .. . ... : ... .. . ... : ... .. . ...
ROW 3D : ... .. . ... : ... .. . ... : ... .. . ... : ... .. . ... : ... .. . ...
ROW 3E : ... .. . ... : ... .. . ... : ... .. . ... : ... .. . ... : ... .. . ...
ROW 3F : ... .. . ... : ... .. . ... : ... .. . ... : ... .. . ... : ... .. . ...

PATTERN 05
ROW 00 : F-3 2E . ... : D-2 2E . ... : F-3 2E . ... : C-# 06 . ... : --- .. . F03
ROW 01 : ... .. . ... : ... .. . ... : ... .. . ... : ... .. . ... : ... .. . ...
ROW 02 : ... .. . ... : ... .. . ... : ... .. . ... : ... .. . ... : ... .. . ...
ROW 03 : ... .. . ... : ... .. . ... : F-3 2E . ... : ... .. . ... : ... .. . ...
ROW 04 : F-3 2E . ... : D-2 2E . ... : --- .. . ... : C-# 03 . ... : ... .. . ...
ROW 05 : ... .. . ... : ... .. . ... : ... .. . ... : ... .. . ... : ... .. . ...
ROW 06 : ... .. . ... : ... .. . ... : F-3 2E . ... : C-# 03 . ... : ... .. . ...
ROW 07 : ... .. . ... : ... .. . ... : ... .. . ... : ... .. . ... : ... .. . ...
ROW 08 : --- .. . ... : ... .. . ... : ... .. . ... : ... .. . ... : ... .. . ...
ROW 09 : ... .. . ... : ... .. . ... : ... .. . ... : ... .. . ... : ... .. . ...
ROW 0A : ... .. . ... : ... .. . ... : ... .. . ... : C-# 03 . ... : ... .. . ...
ROW 0B : ... .. . ... : ... .. . ... : ... .. . ... : ... .. . ... : ... .. . ...
ROW 0C : F-3 2E . ... : D-2 2E . ... : F-3 2E . ... : C-# 06 . ... : ... .. . ...
ROW 0D : ... .. . ... : ... .. . ... : ... .. . ... : ... .. . ... : ... .. . ...
ROW 0E : ... .. . ... : ... .. . ... : ... .. . ... : ... .. . ... : ... .. . ...
ROW 0F : ... .. . ... : ... .. . ... : ... .. . ... : ... .. . ... : ... .. . ...
ROW 10 : --- .. . ... : ... .. . ... : --- .. . ... : C-# 03 . ... : ... .. . ...
ROW 11 : ... .. . ... : ... .. . ... : ... .. . ... : ... .. . ... : ... .. . ...
ROW 12 : ... .. . ... : ... .. . ... : ... .. . ... : C-# 03 . ... : ... .. . ...
ROW 13 : ... .. . ... : ... .. . ... : ... .. . ... : ... .. . ... : ... .. . ...
ROW 14 : ... .. . ... : ... .. . ... : ... .. . ... : ... .. . ... : ... .. . ...
ROW 15 : ... .. . ... : ... .. . ... : ... .. . ... : ... .. . ... : ... .. . ...
ROW 16 : ... .. . ... : ... .. . ... : ... .. . ... : C-# 03 . ... : ... .. . ...
ROW 17 : ... .. . ... : ... .. . ... : ... .. . ... : ... .. . ... : ... .. . ...
ROW 18 : G-3 2E . ... : D-2 2E . ... : G-3 2E . ... : C-# 06 . ... : ... .. . ...
ROW 19 : ... .. . ... : ... .. . ... : ... .. . ... : ... .. . ... : ... .. . ...
ROW 1A : ... .. . ... : ... .. . ... : ... .. . ... : ... .. . ... : ... .. . ...
ROW 1B : ... .. . ... : ... .. . ... : ... .. . ... : ... .. . ... : ... .. . ...
ROW 1C : --- .. . ... : ... .. . ... : --- .. . ... : C-# 03 . ... : ... .. . ...
ROW 1D : ... .. . ... : ... .. . ... : ... .. . ... : ... .. . ... : ... .. . ...
ROW 1E : C#3 2E . ... : E-2 2E . ... : C#3 2E . ... : C-# 03 . ... : ... .. . ...
ROW 1F : ... .. . ... : ... .. . ... : ... .. . ... : ... .. . ... : ... .. . ...
ROW 20 : ... .. . ... : ... .. . ... : ... .. . ... : ... .. . ... : ... .. . ...
ROW 21 : ... .. . ... : ... .. . ... : ... .. . ... : ... .. . ... : ... .. . ...
ROW 22 : --- .. . ... : ... .. . ... : --- .. . ... : C-# 03 . ... : ... .. . ...
ROW 23 : ... .. . ... : ... .. . ... : ... .. . ... : ... .. . ... : ... .. . ...
ROW 24 : D-3 2E . ... : D-2 2E . ... : D-3 2E . ... : C-# 06 . ... : ... .. . ...
ROW 25 : ... .. . ... : ... .. . ... : ... .. . ... : ... .. . ... : ... .. . ...
ROW 26 : ... .. . ... : ... .. . ... : ... .. . ... : ... .. . ... : ... .. . ...
ROW 27 : ... .. . ... : ... .. . ... : ... .. . ... : ... .. . ... : ... .. . ...
ROW 28 : ... .. . ... : ... .. . ... : ... .. . ... : C-# 03 . ... : ... .. . ...
ROW 29 : ... .. . ... : ... .. . ... : ... .. . ... : ... .. . ... : ... .. . ...
ROW 2A : ... .. . ... : ... .. . ... : ... .. . ... : C-# 03 . ... : ... .. . ...
ROW 2B : ... .. . ... : ... .. . ... : ... .. . ... : ... .. . ... : ... .. . ...
ROW 2C : D-3 2E . ... : F-2 2E . ... : D-3 2E . ... : ... .. . ... : ... .. . ...
ROW 2D : ... .. . ... : ... .. . ... : ... .. . ... : ... .. . ... : ... .. . ...
ROW 2E : ... .. . ... : ... .. . ... : ... .. . ... : C-# 03 . ... : ... .. . ...
ROW 2F : ... .. . D00 : ... .. . ... : ... .. . D00 : ... .. . ... : ... .. . ...
ROW 30 : ... .. . ... : ... .. . ... : ... .. . ... : ... .. . ... : ... .. . ...
ROW 31 : ... .. . ... : ... .. . ... : ... .. . ... : ... .. . ... : ... .. . ...
ROW 32 : ... .. . ... : ... .. . ... : ... .. . ... : ... .. . ... : ... .. . ...
ROW 33 : ... .. . ... : ... .. . ... : ... .. . ... : ... .. . ... : ... .. . ...
ROW 34 : ... .. . ... : ... .. . ... : ... .. . ... : ... .. . ... : ... .. . ...
ROW 35 : ... .. . ... : ... .. . ... : ... .. . ... : ... .. . ... : ... .. . ...
ROW 36 : ... .. . ... : ... .. . ... : ... .. . ... : ... .. . ... : ... .. . ...
ROW 37 : ... .. . ... : ... .. . ... : ... .. . ... : ... .. . ... : ... .. . ...
ROW 38 : ... .. . ... : ... .. . ... : ... .. . ... : ... .. . ... : ... .. . ...
ROW 39 : ... .. . ... : ... .. . ... : ... .. . ... : ... .. . ... : ... .. . ...
ROW 3A : ... .. . ... : ... .. . ... : ... .. . ... : ... .. . ... : ... .. . ...
ROW 3B : ... .. . ... : ... .. . ... : ... .. . ... : ... .. . ... : ... .. . ...
ROW 3C : ... .. . ... : ... .. . ... : ... .. . ... : ... .. . ... : ... .. . ...
ROW 3D : ... .. . ... : ... .. . ... : ... .. . ... : ... .. . ... : ... .. . ...
ROW 3E : ... .. . ... : ... .. . ... : ... .. . ... : ... .. . ... : ... .. . ...
ROW 3F : ... .. . ... : ... .. . ... : ... .. . ... : ... .. . ... : ... .. . ...

PATTERN 06
ROW 00 : A-2 2D . ... : A-3 2D . ... : F-3 2E . ... : C-# 06 . ... : --- .. . F03
ROW 01 : ... .. . ... : ... .. . ... : ... .. . ... : ... .. . ... : ... .. . ...
ROW 02 : ... .. . ... : ... .. . ... : ... .. . ... : ... .. . ... : ... .. . ...
ROW 03 : ... .. . ... : ... .. . ... : ... .. . ... : ... .. . ... : ... .. . ...
ROW 04 : D-2 2E . ... : D-3 2E . ... : F-3 2E . ... : C-# 03 . ... : ... .. . ...
ROW 05 : ... .. . ... : ... .. . ... : ... .. . ... : ... .. . ... : ... .. . ...
ROW 06 : ... .. . ... : ... .. . ... : ... .. . ... : C-# 03 . ... : ... .. . ...
ROW 07 : ... .. . ... : ... .. . ... : ... .. . ... : ... .. . ... : ... .. . ...
ROW 08 : F-2 2E . ... : F-3 2E . ... : --- .. . ... : ... .. . ... : ... .. . ...
ROW 09 : ... .. . ... : ... .. . ... : ... .. . ... : ... .. . ... : ... .. . ...
ROW 0A : ... .. . ... : ... .. . ... : ... .. . ... : C-# 03 . ... : ... .. . ...
ROW 0B : ... .. . ... : ... .. . ... : ... .. . ... : ... .. . ... : ... .. . ...
ROW 0C : D-2 2E . ... : D-3 2E . ... : F-3 2E . ... : C-# 06 . ... : ... .. . ...
ROW 0D : ... .. . ... : ... .. . ... : ... .. . ... : ... .. . ... : ... .. . ...
ROW 0E : ... .. . ... : ... .. . ... : ... .. . ... : ... .. . ... : ... .. . ...
ROW 0F : ... .. . ... : ... .. . ... : ... .. . ... : ... .. . ... : ... .. . ...
ROW 10 : ... .. . ... : ... .. . ... : --- .. . ... : C-# 03 . ... : ... .. . ...
ROW 11 : ... .. . ... : ... .. . ... : ... .. . ... : ... .. . ... : ... .. . ...
ROW 12 : ... .. . ... : ... .. . ... : ... .. . ... : C-# 03 . ... : ... .. . ...
ROW 13 : ... .. . ... : ... .. . ... : ... .. . ... : ... .. . ... : ... .. . ...
ROW 14 : ... .. . ... : ... .. . ... : ... .. . ... : ... .. . ... : ... .. . ...
ROW 15 : ... .. . ... : ... .. . ... : ... .. . ... : ... .. . ... : ... .. . ...
ROW 16 : ... .. . ... : ... .. . ... : ... .. . ... : C-# 03 . ... : ... .. . ...
ROW 17 : ... .. . ... : ... .. . ... : ... .. . ... : ... .. . ... : ... .. . ...
ROW 18 : F-2 2E . ... : F-3 2E . ... : G-3 2E . ... : C-# 06 . ... : ... .. . ...
ROW 19 : ... .. . ... : ... .. . ... : ... .. . ... : ... .. . ... : ... .. . ...
ROW 1A : ... .. . ... : ... .. . ... : ... .. . ... : ... .. . ... : ... .. . ...
ROW 1B : G-2 2E . ... : G-3 2E . ... : ... .. . ... : ... .. . ... : ... .. . ...
ROW 1C : ... .. . ... : ... .. . ... : --- .. . ... : C-# 03 . ... : ... .. . ...
ROW 1D : ... .. . ... : ... .. . ... : ... .. . ... : ... .. . ... : ... .. . ...
ROW 1E : A-2 2E . ... : A-3 2E . ... : C#3 2E . ... : C-# 03 . ... : ... .. . ...
ROW 1F : ... .. . ... : ... .. . ... : ... .. . ... : ... .. . ... : ... .. . ...
ROW 20 : ... .. . ... : ... .. . ... : ... .. . ... : ... .. . ... : ... .. . ...
ROW 21 : ... .. . ... : ... .. . ... : ... .. . ... : ... .. . ... : ... .. . ...
ROW 22 : ... .. . ... : ... .. . ... : --- .. . ... : C-# 03 . ... : ... .. . ...
ROW 23 : ... .. . ... : ... .. . ... : ... .. . ... : ... .. . ... : ... .. . ...
ROW 24 : A-2 2E . ... : A-3 2E . ... : D-3 2E . ... : C-# 06 . ... : ... .. . ...
ROW 25 : ... .. . ... : ... .. . ... : ... .. . ... : ... .. . ... : ... .. . ...
ROW 26 : ... .. . ... : ... .. . ... : ... .. . ... : ... .. . ... : ... .. . ...
ROW 27 : ... .. . ... : ... .. . ... : ... .. . ... : ... .. . ... : ... .. . ...
ROW 28 : ... .. . ... : ... .. . ... : ... .. . ... : C-# 03 . ... : ... .. . ...
ROW 29 : ... .. . ... : ... .. . ... : ... .. . ... : ... .. . ... : ... .. . ...
ROW 2A : ... .. . ... : ... .. . ... : ... .. . ... : C-# 03 . ... : ... .. . ...
ROW 2B : ... .. . ... : ... .. . ... : ... .. . ... : ... .. . ... : ... .. . ...
ROW 2C : ... .. . ... : ... .. . ... : D-3 2E . ... : ... .. . ... : ... .. . ...
ROW 2D : ... .. . ... : ... .. . ... : ... .. . ... : ... .. . ... : ... .. . ...
ROW 2E : ... .. . ... : ... .. . ... : ... .. . ... : C-# 03 . ... : ... .. . ...
ROW 2F : ... .. . ... : ... .. . ... : ... .. . D00 : ... .. . ... : ... .. . ...
ROW 30 : ... .. . ... : ... .. . ... : ... .. . ... : ... .. . ... : ... .. . ...
ROW 31 : ... .. . ... : ... .. . ... : ... .. . ... : ... .. . ... : ... .. . ...
ROW 32 : ... .. . ... : ... .. . ... : ... .. . ... : ... .. . ... : ... .. . ...
ROW 33 : ... .. . ... : ... .. . ... : ... .. . ... : ... .. . ... : ... .. . ...
ROW 34 : ... .. . ... : ... .. . ... : ... .. . ... : ... .. . ... : ... .. . ...
ROW 35 : ... .. . ... : ... .. . ... : ... .. . ... : ... .. . ... : ... .. . ...
ROW 36 : ... .. . ... : ... .. . ... : ... .. . ... : ... .. . ... : ... .. . ...
ROW 37 : ... .. . ... : ... .. . ... : ... .. . ... : ... .. . ... : ... .. . ...
ROW 38 : ... .. . ... : ... .. . ... : ... .. . ... : ... .. . ... : ... .. . ...
ROW 39 : ... .. . ... : ... .. . ... : ... .. . ... : ... .. . ... : ... .. . ...
ROW 3A : ... .. . ... : ... .. . ... : ... .. . ... : ... .. . ... : ... .. . ...
ROW 3B : ... .. . ... : ... .. . ... : ... .. . ... : ... .. . ... : ... .. . ...
ROW 3C : ... .. . ... : ... .. . ... : ... .. . ... : ... .. . ... : ... .. . ...
ROW 3D : ... .. . ... : ... .. . ... : ... .. . ... : ... .. . ... : ... .. . ...
ROW 3E : ... .. . ... : ... .. . ... : ... .. . ... : ... .. . ... : ... .. . ...
ROW 3F : ... .. . ... : ... .. . ... : ... .. . ... : ... .. . ... : ... .. . ...

PATTERN 07
ROW 00 : A-2 2D . ... : A-1 2D . ... : D-2 02 . ... : C-# 06 . ... : --- .. . F03
ROW 01 : ... .. . ... : ... .. . ... : ... .. . ... : ... .. . ... : ... .. . ...
ROW 02 : ... .. . ... : ... .. . ... : ... .. . ... : ... .. . ... : ... .. . ...
ROW 03 : ... .. . ... : ... .. . ... : ... .. . ... : ... .. . ... : ... .. . ...
ROW 04 : D-2 2E . ... : D-1 2E . ... : --- .. . ... : C-# 03 . ... : ... .. . ...
ROW 05 : ... .. . ... : ... .. . ... : ... .. . ... : ... .. . ... : ... .. . ...
ROW 06 : ... .. . ... : ... .. . ... : ... .. . ... : C-# 03 . ... : ... .. . ...
ROW 07 : ... .. . ... : ... .. . ... : ... .. . ... : ... .. . ... : ... .. . ...
ROW 08 : F-2 2E . ... : F-1 2E . ... : ... .. . ... : ... .. . ... : ... .. . ...
ROW 09 : ... .. . ... : ... .. . ... : ... .. . ... : ... .. . ... : ... .. . ...
ROW 0A : ... .. . ... : ... .. . ... : ... .. . ... : C-# 03 . ... : ... .. . ...
ROW 0B : ... .. . ... : ... .. . ... : ... .. . ... : ... .. . ... : ... .. . ...
ROW 0C : D-2 2E . ... : D-1 2E . ... : D-2 02 . ... : C-# 06 . ... : ... .. . ...
ROW 0D : ... .. . ... : ... .. . ... : ... .. . ... : ... .. . ... : ... .. . ...
ROW 0E : ... .. . ... : ... .. . ... : ... .. . ... : ... .. . ... : ... .. . ...
ROW 0F : ... .. . ... : ... .. . ... : ... .. . ... : ... .. . ... : ... .. . ...
ROW 10 : ... .. . ... : ... .. . ... : --- .. . ... : C-# 03 . ... : ... .. . ...
ROW 11 : ... .. . ... : ... .. . ... : ... .. . ... : ... .. . ... : ... .. . ...
ROW 12 : ... .. . ... : ... .. . ... : ... .. . ... : C-# 03 . ... : ... .. . ...
ROW 13 : ... .. . ... : ... .. . ... : ... .. . ... : ... .. . ... : ... .. . ...
ROW 14 : ... .. . ... : ... .. . ... : ... .. . ... : ... .. . ... : ... .. . ...
ROW 15 : ... .. . ... : ... .. . ... : ... .. . ... : ... .. . ... : ... .. . ...
ROW 16 : ... .. . ... : ... .. . ... : ... .. . ... : C-# 03 . ... : ... .. . ...
ROW 17 : ... .. . ... : ... .. . ... : ... .. . ... : ... .. . ... : ... .. . ...
ROW 18 : ... .. . ... : ... .. . ... : D-3 2E . ... : C-# 06 . ... : ... .. . ...
ROW 19 : ... .. . ... : ... .. . ... : ... .. . ... : ... .. . ... : ... .. . ...
ROW 1A : ... .. . ... : ... .. . ... : ... .. . ... : ... .. . ... : ... .. . ...
ROW 1B : ... .. . ... : ... .. . ... : E-3 2E . ... : ... .. . ... : ... .. . ...
ROW 1C : ... .. . ... : ... .. . ... : ... .. . ... : C-# 03 . ... : ... .. . ...
ROW 1D : ... .. . ... : ... .. . ... : ... .. . ... : ... .. . ... : ... .. . ...
ROW 1E : ... .. . ... : ... .. . ... : F-3 2E . ... : C-# 03 . ... : ... .. . ...
ROW 1F : ... .. . ... : ... .. . ... : ... .. . ... : ... .. . ... : ... .. . ...
ROW 20 : A-2 2E . ... : A-1 2E . ... : ... .. . ... : ... .. . ... : ... .. . ...
ROW 21 : ... .. . ... : ... .. . ... : ... .. . ... : ... .. . ... : ... .. . ...
ROW 22 : F-2 2E . ... : F-1 2E . ... : ... .. . ... : C-# 03 . ... : ... .. . ...
ROW 23 : ... .. . ... : ... .. . ... : ... .. . ... : ... .. . ... : ... .. . ...
ROW 24 : A-2 2E . ... : A-1 2E . ... : A-3 2E . ... : C-# 06 . ... : ... .. . ...
ROW 25 : ... .. . ... : ... .. . ... : ... .. . ... : ... .. . ... : ... .. . ...
ROW 26 : ... .. . ... : ... .. . ... : ... .. . ... : ... .. . ... : ... .. . ...
ROW 27 : ... .. . ... : ... .. . ... : ... .. . ... : ... .. . ... : ... .. . ...
ROW 28 : ... .. . ... : ... .. . ... : ... .. . ... : C-# 03 . ... : ... .. . ...
ROW 29 : ... .. . ... : ... .. . ... : ... .. . ... : ... .. . ... : ... .. . ...
ROW 2A : ... .. . ... : ... .. . ... : ... .. . ... : C-# 03 . ... : ... .. . ...
ROW 2B : ... .. . ... : ... .. . ... : ... .. . ... : ... .. . ... : ... .. . ...
ROW 2C : ... .. . ... : ... .. . ... : E-3 2E . ... : ... .. . ... : ... .. . ...
ROW 2D : ... .. . ... : ... .. . ... : ... .. . ... : ... .. . ... : ... .. . ...
ROW 2E : ... .. . ... : ... .. . ... : ... .. . ... : C-# 03 . ... : ... .. . ...
ROW 2F : ... .. . ... : ... .. . ... : ... .. . D00 : ... .. . ... : ... .. . ...
ROW 30 : ... .. . ... : ... .. . ... : ... .. . ... : ... .. . ... : ... .. . ...
ROW 31 : ... .. . ... : ... .. . ... : ... .. . ... : ... .. . ... : ... .. . ...
ROW 32 : ... .. . ... : ... .. . ... : ... .. . ... : ... .. . ... : ... .. . ...
ROW 33 : ... .. . ... : ... .. . ... : ... .. . ... : ... .. . ... : ... .. . ...
ROW 34 : ... .. . ... : ... .. . ... : ... .. . ... : ... .. . ... : ... .. . ...
ROW 35 : ... .. . ... : ... .. . ... : ... .. . ... : ... .. . ... : ... .. . ...
ROW 36 : ... .. . ... : ... .. . ... : ... .. . ... : ... .. . ... : ... .. . ...
ROW 37 : ... .. . ... : ... .. . ... : ... .. . ... : ... .. . ... : ... .. . ...
ROW 38 : ... .. . ... : ... .. . ... : ... .. . ... : ... .. . ... : ... .. . ...
ROW 39 : ... .. . ... : ... .. . ... : ... .. . ... : ... .. . ... : ... .. . ...
ROW 3A : ... .. . ... : ... .. . ... : ... .. . ... : ... .. . ... : ... .. . ...
ROW 3B : ... .. . ... : ... .. . ... : ... .. . ... : ... .. . ... : ... .. . ...
ROW 3C : ... .. . ... : ... .. . ... : ... .. . ... : ... .. . ... : ... .. . ...
ROW 3D : ... .. . ... : ... .. . ... : ... .. . ... : ... .. . ... : ... .. . ...
ROW 3E : ... .. . ... : ... .. . ... : ... .. . ... : ... .. . ... : ... .. . ...
ROW 3F : ... .. . ... : ... .. . ... : ... .. . ... : ... .. . ... : ... .. . ...

PATTERN 08
ROW 00 : A-4 0D . ... : A-2 2E . ... : D-2 02 . ... : C-# 06 . ... : --- .. . F03
ROW 01 : --- 0D . ... : ... .. . ... : ... .. . ... : ... .. . ... : ... .. . ...
ROW 02 : F-4 0D . ... : ... .. . ... : ... .. . ... : ... .. . ... : ... .. . ...
ROW 03 : --- 0D . ... : ... .. . ... : ... .. . ... : ... .. . ... : ... .. . ...
ROW 04 : E-4 0D . ... : ... .. . ... : --- .. . ... : C-# 03 . ... : ... .. . ...
ROW 05 : --- 0D . ... : ... .. . ... : ... .. . ... : ... .. . ... : ... .. . ...
ROW 06 : D-4 0D . ... : ... .. . ... : ... .. . ... : C-# 03 . ... : ... .. . ...
ROW 07 : --- 0D . ... : ... .. . ... : ... .. . ... : ... .. . ... : ... .. . ...
ROW 08 : F-4 0D . ... : ... .. . ... : ... .. . ... : ... .. . ... : ... .. . ...
ROW 09 : E-4 0D . ... : ... .. . ... : ... .. . ... : ... .. . ... : ... .. . ...
ROW 0A : D-4 0D . ... : ... .. . ... : ... .. . ... : C-# 03 . ... : ... .. . ...
ROW 0B : E-4 0D . ... : ... .. . ... : ... .. . ... : ... .. . ... : ... .. . ...
ROW 0C : A-4 0D . ... : A-2 2E . ... : D-2 02 . ... : C-# 06 . ... : ... .. . ...
ROW 0D : ... .. . ... : ... .. . ... : ... .. . ... : ... .. . ... : ... .. . ...
ROW 0E : ... .. . ... : ... .. . ... : ... .. . ... : ... .. . ... : ... .. . ...
ROW 0F : ... .. . ... : ... .. . ... : ... .. . ... : ... .. . ... : ... .. . ...
ROW 10 : ... .. . ... : ... .. . ... : --- .. . ... : C-# 03 . ... : ... .. . ...
ROW 11 : ... .. . ... : ... .. . ... : ... .. . ... : ... .. . ... : ... .. . ...
ROW 12 : ... .. . ... : ... .. . ... : ... .. . ... : C-# 03 . ... : ... .. . ...
ROW 13 : ... .. . ... : ... .. . ... : ... .. . ... : ... .. . ... : ... .. . ...
ROW 14 : ... .. . ... : ... .. . ... : ... .. . ... : ... .. . ... : ... .. . ...
ROW 15 : ... .. . ... : ... .. . ... : ... .. . ... : ... .. . ... : ... .. . ...
ROW 16 : ... .. . ... : ... .. . ... : ... .. . ... : C-# 03 . ... : ... .. . ...
ROW 17 : ... .. . ... : ... .. . ... : ... .. . ... : ... .. . ... : ... .. . ...
ROW 18 : A#4 0D . ... : A#2 2E . ... : A#3 2E . ... : C-# 06 . ... : ... .. . ...
ROW 19 : ... .. . ... : ... .. . ... : ... .. . ... : ... .. . ... : ... .. . ...
ROW 1A : ... .. . ... : ... .. . ... : ... .. . ... : ... .. . ... : ... .. . ...
ROW 1B : ... .. . ... : ... .. . ... : ... .. . ... : ... .. . ... : ... .. . ...
ROW 1C : ... .. . ... : ... .. . ... : --- .. . ... : C-# 03 . ... : ... .. . ...
ROW 1D : ... .. . ... : ... .. . ... : ... .. . ... : ... .. . ... : ... .. . ...
ROW 1E : G-4 0D . ... : G-2 2E . ... : A#3 2E . ... : C-# 03 . ... : ... .. . ...
ROW 1F : ... .. . ... : ... .. . ... : ... .. . ... : ... .. . ... : ... .. . ...
ROW 20 : ... .. . ... : ... .. . ... : ... .. . ... : ... .. . ... : ... .. . ...
ROW 21 : ... .. . ... : ... .. . ... : ... .. . ... : ... .. . ... : ... .. . ...
ROW 22 : ... .. . ... : ... .. . ... : --- .. . ... : C-# 03 . ... : ... .. . ...
ROW 23 : ... .. . ... : ... .. . ... : ... .. . ... : ... .. . ... : ... .. . ...
ROW 24 : A-4 0D . ... : A-2 2E . ... : A-3 2E . ... : C-# 06 . ... : ... .. . ...
ROW 25 : G-4 0D . ... : ... .. . ... : ... .. . ... : ... .. . ... : ... .. . ...
ROW 26 : A-4 0D . ... : ... .. . ... : ... .. . ... : ... .. . ... : ... .. . ...
ROW 27 : ... .. . ... : ... .. . ... : ... .. . ... : ... .. . ... : ... .. . ...
ROW 28 : ... .. . ... : ... .. . ... : ... .. . ... : C-# 03 . ... : ... .. . ...
ROW 29 : ... .. . ... : ... .. . ... : ... .. . ... : ... .. . ... : ... .. . ...
ROW 2A : ... .. . ... : ... .. . ... : ... .. . ... : C-# 03 . ... : ... .. . ...
ROW 2B : ... .. . ... : ... .. . ... : ... .. . ... : ... .. . ... : ... .. . ...
ROW 2C : A-2 2E . ... : G-2 2E . ... : ... .. . ... : ... .. . ... : ... .. . ...
ROW 2D : ... .. . ... : ... .. . ... : ... .. . ... : ... .. . ... : ... .. . ...
ROW 2E : ... .. . ... : ... .. . ... : ... .. . ... : C-# 03 . ... : ... .. . ...
ROW 2F : ... .. . ... : ... .. . ... : ... .. . D00 : ... .. . ... : ... .. . ...
ROW 30 : ... .. . ... : ... .. . ... : ... .. . ... : ... .. . ... : ... .. . ...
ROW 31 : ... .. . ... : ... .. . ... : ... .. . ... : ... .. . ... : ... .. . ...
ROW 32 : ... .. . ... : ... .. . ... : ... .. . ... : ... .. . ... : ... .. . ...
ROW 33 : ... .. . ... : ... .. . ... : ... .. . ... : ... .. . ... : ... .. . ...
ROW 34 : ... .. . ... : ... .. . ... : ... .. . ... : ... .. . ... : ... .. . ...
ROW 35 : ... .. . ... : ... .. . ... : ... .. . ... : ... .. . ... : ... .. . ...
ROW 36 : ... .. . ... : ... .. . ... : ... .. . ... : ... .. . ... : ... .. . ...
ROW 37 : ... .. . ... : ... .. . ... : ... .. . ... : ... .. . ... : ... .. . ...
ROW 38 : ... .. . ... : ... .. . ... : ... .. . ... : ... .. . ... : ... .. . ...
ROW 39 : ... .. . ... : ... .. . ... : ... .. . ... : ... .. . ... : ... .. . ...
ROW 3A : ... .. . ... : ... .. . ... : ... .. . ... : ... .. . ... : ... .. . ...
ROW 3B : ... .. . ... : ... .. . ... : ... .. . ... : ... .. . ... : ... .. . ...
ROW 3C : ... .. . ... : ... .. . ... : ... .. . ... : ... .. . ... : ... .. . ...
ROW 3D : ... .. . ... : ... .. . ... : ... .. . ... : ... .. . ... : ... .. . ...
ROW 3E : ... .. . ... : ... .. . ... : ... .. . ... : ... .. . ... : ... .. . ...
ROW 3F : ... .. . ... : ... .. . ... : ... .. . ... : ... .. . ... : ... .. . ...

PATTERN 09
ROW 00 : A-4 0D . ... : A-3 2E . ... : F-3 2E . ... : C-# 06 . ... : --- .. . F03
ROW 01 : ... .. . ... : ... .. . ... : ... .. . ... : ... .. . ... : ... .. . ...
ROW 02 : ... .. . ... : ... .. . ... : ... .. . ... : ... .. . ... : ... .. . ...
ROW 03 : ... .. . ... : ... .. . ... : ... .. . ... : ... .. . ... : ... .. . ...
ROW 04 : ... .. . ... : ... .. . ... : --- .. . ... : C-# 03 . ... : ... .. . ...
ROW 05 : ... .. . ... : ... .. . ... : ... .. . ... : ... .. . ... : ... .. . ...
ROW 06 : ... .. . ... : ... .. . ... : ... .. . ... : C-# 03 . ... : ... .. . ...
ROW 07 : ... .. . ... : ... .. . ... : ... .. . ... : ... .. . ... : ... .. . ...
ROW 08 : ... .. . ... : ... .. . ... : ... .. . ... : ... .. . ... : ... .. . ...
ROW 09 : ... .. . ... : ... .. . ... : ... .. . ... : ... .. . ... : ... .. . ...
ROW 0A : ... .. . ... : ... .. . ... : ... .. . ... : C-# 03 . ... : ... .. . ...
ROW 0B : ... .. . ... : ... .. . ... : ... .. . ... : ... .. . ... : ... .. . ...
ROW 0C : A-4 0D . ... : A-3 2E . ... : F-3 2E . ... : C-# 06 . ... : ... .. . ...
ROW 0D : ... .. . ... : ... .. . ... : ... .. . ... : ... .. . ... : ... .. . ...
ROW 0E : ... .. . ... : ... .. . ... : ... .. . ... : ... .. . ... : ... .. . ...
ROW 0F : ... .. . ... : ... .. . ... : ... .. . ... : ... .. . ... : ... .. . ...
ROW 10 : ... .. . ... : ... .. . ... : --- .. . ... : C-# 03 . ... : ... .. . ...
ROW 11 : ... .. . ... : ... .. . ... : ... .. . ... : ... .. . ... : ... .. . ...
ROW 12 : ... .. . ... : ... .. . ... : ... .. . ... : C-# 03 . ... : ... .. . ...
ROW 13 : ... .. . ... : ... .. . ... : ... .. . ... : ... .. . ... : ... .. . ...
ROW 14 : ... .. . ... : ... .. . ... : ... .. . ... : ... .. . ... : ... .. . ...
ROW 15 : ... .. . ... : ... .. . ... : ... .. . ... : ... .. . ... : ... .. . ...
ROW 16 : ... .. . ... : ... .. . ... : ... .. . ... : C-# 03 . ... : ... .. . ...
ROW 17 : ... .. . ... : ... .. . ... : ... .. . ... : ... .. . ... : ... .. . ...
ROW 18 : A#4 0D . ... : A#3 2E . ... : G-3 2E . ... : C-# 06 . ... : ... .. . ...
ROW 19 : ... .. . ... : ... .. . ... : ... .. . ... : ... .. . ... : ... .. . ...
ROW 1A : ... .. . ... : ... .. . ... : ... .. . ... : ... .. . ... : ... .. . ...
ROW 1B : ... .. . ... : ... .. . ... : ... .. . ... : ... .. . ... : ... .. . ...
ROW 1C : ... .. . ... : ... .. . ... : --- .. . ... : C-# 03 . ... : ... .. . ...
ROW 1D : ... .. . ... : ... .. . ... : ... .. . ... : ... .. . ... : ... .. . ...
ROW 1E : G-4 0D . ... : G-3 2E . ... : C#3 2E . ... : C-# 03 . ... : ... .. . ...
ROW 1F : ... .. . ... : ... .. . ... : ... .. . ... : ... .. . ... : ... .. . ...
ROW 20 : ... .. . ... : ... .. . ... : ... .. . ... : ... .. . ... : ... .. . ...
ROW 21 : ... .. . ... : ... .. . ... : ... .. . ... : ... .. . ... : ... .. . ...
ROW 22 : ... .. . ... : ... .. . ... : --- .. . ... : C-# 03 . ... : ... .. . ...
ROW 23 : ... .. . ... : ... .. . ... : ... .. . ... : ... .. . ... : ... .. . ...
ROW 24 : A-4 0D . ... : A-3 2E . ... : D-3 2E . ... : C-# 06 . ... : ... .. . ...
ROW 25 : ... .. . ... : ... .. . ... : ... .. . ... : ... .. . ... : ... .. . ...
ROW 26 : ... .. . ... : ... .. . ... : ... .. . ... : ... .. . ... : ... .. . ...
ROW 27 : ... .. . ... : ... .. . ... : ... .. . ... : ... .. . ... : ... .. . ...
ROW 28 : ... .. . ... : ... .. . ... : ... .. . ... : C-# 03 . ... : ... .. . ...
ROW 29 : ... .. . ... : ... .. . ... : ... .. . ... : ... .. . ... : ... .. . ...
ROW 2A : ... .. . ... : ... .. . ... : ... .. . ... : C-# 03 . ... : ... .. . ...
ROW 2B : ... .. . ... : ... .. . ... : ... .. . ... : ... .. . ... : ... .. . ...
ROW 2C : ... .. . ... : ... .. . ... : D-3 2E . ... : ... .. . ... : ... .. . ...
ROW 2D : ... .. . ... : ... .. . ... : ... .. . ... : ... .. . ... : ... .. . ...
ROW 2E : ... .. . ... : ... .. . ... : ... .. . ... : C-# 03 . ... : ... .. . ...
ROW 2F : ... .. . ... : ... .. . B00 : ... .. . D00 : ... .. . ... : ... .. . ...
ROW 30 : ... .. . ... : ... .. . ... : ... .. . ... : ... .. . ... : ... .. . ...
ROW 31 : ... .. . ... : ... .. . ... : ... .. . ... : ... .. . ... : ... .. . ...
ROW 32 : ... .. . ... : ... .. . ... : ... .. . ... : ... .. . ... : ... .. . ...
ROW 33 : ... .. . ... : ... .. . ... : ... .. . ... : ... .. . ... : ... .. . ...
ROW 34 : ... .. . ... : ... .. . ... : ... .. . ... : ... .. . ... : ... .. . ...
ROW 35 : ... .. . ... : ... .. . ... : ... .. . ... : ... .. . ... : ... .. . ...
ROW 36 : ... .. . ... : ... .. . ... : ... .. . ... : ... .. . ... : ... .. . ...
ROW 37 : ... .. . ... : ... .. . ... : ... .. . ... : ... .. . ... : ... .. . ...
ROW 38 : ... .. . ... : ... .. . ... : ... .. . ... : ... .. . ... : ... .. . ...
ROW 39 : ... .. . ... : ... .. . ... : ... .. . ... : ... .. . ... : ... .. . ...
ROW 3A : ... .. . ... : ... .. . ... : ... .. . ... : ... .. . ... : ... .. . ...
ROW 3B : ... .. . ... : ... .. . ... : ... .. . ... : ... .. . ... : ... .. . ...
ROW 3C : ... .. . ... : ... .. . ... : ... .. . ... : ... .. . ... : ... .. . ...
ROW 3D : ... .. . ... : ... .. . ... : ... .. . ... : ... .. . ... : ... .. . ...
ROW 3E : ... .. . ... : ... .. . ... : ... .. . ... : ... .. . ... : ... .. . ...
ROW 3F : ... .. . ... : ... .. . ... : ... .. . ... : ... .. . ... : ... .. . ...

PATTERN 0A
ROW 00 : D-4 0D . ... : A-3 2E . ... : F-4 2E . ... : 8-# 06 . ... : --- .. . F03
ROW 01 : ... .. . ... : ... .. . ... : ... .. . ... : ... .. . ... : ... .. . ...
ROW 02 : ... .. . ... : ... .. . ... : ... .. . ... : ... .. . ... : ... .. . ...
ROW 03 : ... .. . ... : ... .. . ... : ... .. . ... : ... .. . ... : ... .. . ...
ROW 04 : ... .. . ... : ... .. . ... : --- .. . ... : 8-# 03 . ... : ... .. . ...
ROW 05 : ... .. . ... : ... .. . ... : ... .. . ... : ... .. . ... : ... .. . ...
ROW 06 : ... .. . ... : ... .. . ... : ... .. . ... : 8-# 03 . ... : ... .. . ...
ROW 07 : ... .. . ... : ... .. . ... : ... .. . ... : ... .. . ... : ... .. . ...
ROW 08 : ... .. . ... : ... .. . ... : ... .. . ... : ... .. . ... : ... .. . ...
ROW 09 : ... .. . ... : ... .. . ... : ... .. . ... : ... .. . ... : ... .. . ...
ROW 0A : ... .. . ... : ... .. . ... : ... .. . ... : 8-# 03 . ... : ... .. . ...
ROW 0B : ... .. . ... : ... .. . ... : ... .. . ... : ... .. . ... : ... .. . ...
ROW 0C : D-4 0D . ... : A-3 2E . ... : F-4 2E . ... : 8-# 06 . ... : ... .. . ...
ROW 0D : ... .. . ... : ... .. . ... : ... .. . ... : ... .. . ... : ... .. . ...
ROW 0E : ... .. . ... : ... .. . ... : ... .. . ... : ... .. . ... : ... .. . ...
ROW 0F : ... .. . ... : ... .. . ... : ... .. . ... : ... .. . ... : ... .. . ...
ROW 10 : ... .. . ... : ... .. . ... : --- .. . ... : 8-# 03 . ... : ... .. . ...
ROW 11 : ... .. . ... : ... .. . ... : ... .. . ... : ... .. . ... : ... .. . ...
ROW 12 : ... .. . ... : ... .. . ... : ... .. . ... : 8-# 03 . ... : ... .. . ...
ROW 13 : ... .. . ... : ... .. . ... : ... .. . ... : ... .. . ... : ... .. . ...
ROW 14 : ... .. . ... : ... .. . ... : ... .. . ... : ... .. . ... : ... .. . ...
ROW 15 : ... .. . ... : ... .. . ... : ... .. . ... : ... .. . ... : ... .. . ...
ROW 16 : ... .. . ... : ... .. . ... : ... .. . ... : 8-# 03 . ... : ... .. . ...
ROW 17 : ... .. . ... : ... .. . ... : ... .. . ... : ... .. . ... : ... .. . ...
ROW 18 : F-4 0D . ... : A#3 2E . ... : G-4 2E . ... : 4-# 0C . ... : ... .. . ...
ROW 19 : ... .. . ... : ... .. . ... : ... .. . ... : ... .. . ... : ... .. . ...
ROW 1A : ... .. . ... : ... .. . ... : ... .. . ... : ... .. . ... : ... .. . ...
ROW 1B : ... .. . ... : ... .. . ... : ... .. . ... : ... .. . ... : ... .. . ...
ROW 1C : ... .. . ... : ... .. . ... : --- .. . ... : ... .. . ... : ... .. . ...
ROW 1D : ... .. . ... : ... .. . ... : ... .. . ... : ... .. . ... : ... .. . ...
ROW 1E : G-4 0D . ... : G-3 2E . ... : C#4 2E . ... : ... .. . ... : ... .. . ...
ROW 1F : ... .. . ... : ... .. . ... : ... .. . ... : ... .. . ... : ... .. . ...
ROW 20 : ... .. . ... : ... .. . ... : ... .. . ... : ... .. . ... : ... .. . ...
ROW 21 : ... .. . ... : ... .. . ... : ... .. . ... : ... .. . ... : ... .. . ...
ROW 22 : ... .. . ... : ... .. . ... : --- .. . ... : ... .. . ... : ... .. . ...
ROW 23 : ... .. . ... : ... .. . ... : ... .. . ... : ... .. . ... : ... .. . ...
ROW 24 : D-4 0D . ... : A-3 2E . ... : D-4 2E . ... : ... .. . ... : ... .. . ...
ROW 25 : ... .. . ... : ... .. . ... : ... .. . ... : ... .. . ... : ... .. . ...
ROW 26 : ... .. . ... : ... .. . ... : ... .. . ... : ... .. . ... : ... .. . ...
ROW 27 : ... .. . ... : ... .. . ... : ... .. . ... : ... .. . ... : ... .. . ...
ROW 28 : ... .. . ... : ... .. . ... : ... .. . ... : ... .. . ... : ... .. . ...
ROW 29 : ... .. . ... : ... .. . ... : ... .. . ... : ... .. . ... : ... .. . ...
ROW 2A : ... .. . ... : ... .. . ... : ... .. . ... : ... .. . ... : ... .. . ...
ROW 2B : ... .. . ... : ... .. . ... : ... .. . ... : ... .. . ... : ... .. . ...
ROW 2C : A-4 2E . ... : G-3 2E . ... : ... .. . ... : 0-# 03 . ... : ... .. . ...
ROW 2D : ... .. . ... : ... .. . ... : ... .. . ... : ... .. . ... : ... .. . ...
ROW 2E : ... .. . ... : ... .. . ... : ... .. . ... : ... .. . ... : ... .. . ...
ROW 2F : ... .. . ... : ... .. . ... : ... .. . D00 : ... .. . ... : ... .. . ...
ROW 30 : ... .. . ... : ... .. . ... : ... .. . ... : ... .. . ... : ... .. . ...
ROW 31 : ... .. . ... : ... .. . ... : ... .. . ... : ... .. . ... : ... .. . ...
ROW 32 : ... .. . ... : ... .. . ... : ... .. . ... : ... .. . ... : ... .. . ...
ROW 33 : ... .. . ... : ... .. . ... : ... .. . ... : ... .. . ... : ... .. . ...
ROW 34 : ... .. . ... : ... .. . ... : ... .. . ... : ... .. . ... : ... .. . ...
ROW 35 : ... .. . ... : ... .. . ... : ... .. . ... : ... .. . ... : ... .. . ...
ROW 36 : ... .. . ... : ... .. . ... : ... .. . ... : ... .. . ... : ... .. . ...
ROW 37 : ... .. . ... : ... .. . ... : ... .. . ... : ... .. . ... : ... .. . ...
ROW 38 : ... .. . ... : ... .. . ... : ... .. . ... : ... .. . ... : ... .. . ...
ROW 39 : ... .. . ... : ... .. . ... : ... .. . ... : ... .. . ... : ... .. . ...
ROW 3A : ... .. . ... : ... .. . ... : ... .. . ... : ... .. . ... : ... .. . ...
ROW 3B : ... .. . ... : ... .. . ... : ... .. . ... : ... .. . ... : ... .. . ...
ROW 3C : ... .. . ... : ... .. . ... : ... .. . ... : ... .. . ... : ... .. . ...
ROW 3D : ... .. . ... : ... .. . ... : ... .. . ... : ... .. . ... : ... .. . ...
ROW 3E : ... .. . ... : ... .. . ... : ... .. . ... : ... .. . ... : ... .. . ...
ROW 3F : ... .. . ... : ... .. . ... : ... .. . ... : ... .. . ... : ... .. . ...

PATTERN 0B
ROW 00 : ... .. . ... : ... .. . ... : F-4 2E . ... : 8-# 06 . ... : --- .. . F03
ROW 01 : ... .. . ... : ... .. . ... : ... .. . ... : ... .. . ... : ... .. . ...
ROW 02 : ... .. . ... : ... .. . ... : ... .. . ... : ... .. . ... : ... .. . ...
ROW 03 : ... .. . ... : ... .. . ... : ... .. . ... : ... .. . ... : ... .. . ...
ROW 04 : ... .. . ... : ... .. . ... : --- .. . ... : 8-# 03 . ... : ... .. . ...
ROW 05 : ... .. . ... : ... .. . ... : ... .. . ... : ... .. . ... : ... .. . ...
ROW 06 : ... .. . ... : ... .. . ... : ... .. . ... : 8-# 03 . ... : ... .. . ...
ROW 07 : ... .. . ... : ... .. . ... : ... .. . ... : ... .. . ... : ... .. . ...
ROW 08 : ... .. . ... : ... .. . ... : ... .. . ... : ... .. . ... : ... .. . ...
ROW 09 : ... .. . ... : ... .. . ... : ... .. . ... : ... .. . ... : ... .. . ...
ROW 0A : ... .. . ... : ... .. . ... : ... .. . ... : 8-# 03 . ... : ... .. . ...
ROW 0B : ... .. . ... : ... .. . ... : ... .. . ... : ... .. . ... : ... .. . ...
ROW 0C : ... .. . ... : ... .. . ... : F-4 2E . ... : 8-# 06 . ... : ... .. . ...
ROW 0D : ... .. . ... : ... .. . ... : ... .. . ... : ... .. . ... : ... .. . ...
ROW 0E : ... .. . ... : ... .. . ... : ... .. . ... : ... .. . ... : ... .. . ...
ROW 0F : ... .. . ... : ... .. . ... : ... .. . ... : ... .. . ... : ... .. . ...
ROW 10 : ... .. . ... : ... .. . ... : --- .. . ... : 8-# 03 . ... : ... .. . ...
ROW 11 : ... .. . ... : ... .. . ... : ... .. . ... : ... .. . ... : ... .. . ...
ROW 12 : ... .. . ... : ... .. . ... : ... .. . ... : 8-# 03 . ... : ... .. . ...
ROW 13 : ... .. . ... : ... .. . ... : ... .. . ... : ... .. . ... : ... .. . ...
ROW 14 : ... .. . ... : ... .. . ... : ... .. . ... : ... .. . ... : ... .. . ...
ROW 15 : ... .. . ... : ... .. . ... : ... .. . ... : ... .. . ... : ... .. . ...
ROW 16 : ... .. . ... : ... .. . ... : ... .. . ... : 8-# 03 . ... : ... .. . ...
ROW 17 : ... .. . ... : ... .. . ... : ... .. . ... : ... .. . ... : ... .. . ...
ROW 18 : ... .. . ... : ... .. . ... : G-4 2E . ... : 8-# 06 . ... : ... .. . ...
ROW 19 : ... .. . ... : ... .. . ... : ... .. . ... : ... .. . ... : ... .. . ...
ROW 1A : ... .. . ... : ... .. . ... : ... .. . ... : ... .. . ... : ... .. . ...
ROW 1B : ... .. . ... : ... .. . ... : ... .. . ... : ... .. . ... : ... .. . ...
ROW 1C : ... .. . ... : ... .. . ... : --- .. . ... : 8-# 03 . ... : ... .. . ...
ROW 1D : ... .. . ... : ... .. . ... : ... .. . ... : ... .. . ... : ... .. . ...
ROW 1E : ... .. . ... : ... .. . ... : C#4 2E . ... : 8-# 03 . ... : ... .. . ...
ROW 1F : ... .. . ... : ... .. . ... : ... .. . ... : ... .. . ... : ... .. . ...
ROW 20 : ... .. . ... : ... .. . ... : ... .. . ... : ... .. . ... : ... .. . ...
ROW 21 : ... .. . ... : ... .. . ... : ... .. . ... : ... .. . ... : ... .. . ...
ROW 22 : ... .. . ... : ... .. . ... : --- .. . ... : 8-# 03 . ... : ... .. . ...
ROW 23 : ... .. . ... : ... .. . ... : ... .. . ... : ... .. . ... : ... .. . ...
ROW 24 : ... .. . ... : ... .. . ... : D-4 2E . ... : 8-# 06 . ... : ... .. . ...
ROW 25 : ... .. . ... : ... .. . ... : ... .. . ... : ... .. . ... : ... .. . ...
ROW 26 : ... .. . ... : ... .. . ... : ... .. . ... : ... .. . ... : ... .. . ...
ROW 27 : ... .. . ... : ... .. . ... : ... .. . ... : ... .. . ... : ... .. . ...
ROW 28 : ... .. . ... : ... .. . ... : ... .. . ... : 8-# 03 . ... : ... .. . ...
ROW 29 : ... .. . ... : ... .. . ... : ... .. . ... : ... .. . ... : ... .. . ...
ROW 2A : ... .. . ... : ... .. . ... : ... .. . ... : 8-# 03 . ... : ... .. . ...
ROW 2B : ... .. . ... : ... .. . ... : ... .. . ... : ... .. . ... : ... .. . ...
ROW 2C : ... .. . ... : ... .. . ... : D-4 2E . ... : ... .. . ... : ... .. . ...
ROW 2D : ... .. . ... : ... .. . ... : ... .. . ... : ... .. . ... : ... .. . ...
ROW 2E : ... .. . ... : ... .. . ... : ... .. . ... : 8-# 03 . ... : ... .. . ...
ROW 2F : ... .. . ... : ... .. . ... : ... .. . D00 : ... .. . ... : ... .. . ...
ROW 30 : ... .. . ... : ... .. . ... : ... .. . ... : ... .. . ... : ... .. . ...
ROW 31 : ... .. . ... : ... .. . ... : ... .. . ... : ... .. . ... : ... .. . ...
ROW 32 : ... .. . ... : ... .. . ... : ... .. . ... : ... .. . ... : ... .. . ...
ROW 33 : ... .. . ... : ... .. . ... : ... .. . ... : ... .. . ... : ... .. . ...
ROW 34 : ... .. . ... : ... .. . ... : ... .. . ... : ... .. . ... : ... .. . ...
ROW 35 : ... .. . ... : ... .. . ... : ... .. . ... : ... .. . ... : ... .. . ...
ROW 36 : ... .. . ... : ... .. . ... : ... .. . ... : ... .. . ... : ... .. . ...
ROW 37 : ... .. . ... : ... .. . ... : ... .. . ... : ... .. . ... : ... .. . ...
ROW 38 : ... .. . ... : ... .. . ... : ... .. . ... : ... .. . ... : ... .. . ...
ROW 39 : ... .. . ... : ... .. . ... : ... .. . ... : ... .. . ... : ... .. . ...
ROW 3A : ... .. . ... : ... .. . ... : ... .. . ... : ... .. . ... : ... .. . ...
ROW 3B : ... .. . ... : ... .. . ... : ... .. . ... : ... .. . ... : ... .. . ...
ROW 3C : ... .. . ... : ... .. . ... : ... .. . ... : ... .. . ... : ... .. . ...
ROW 3D : ... .. . ... : ... .. . ... : ... .. . ... : ... .. . ... : ... .. . ...
ROW 3E : ... .. . ... : ... .. . ... : ... .. . ... : ... .. . ... : ... .. . ...
ROW 3F : ... .. . ... : ... .. . ... : ... .. . ... : ... .. . ... : ... .. . ...

TRACK  64   6 150 "Level1"
COLUMNS : 1 1 1 1 1

ORDER 00 : 00 00 00 00 00
ORDER 01 : 01 01 01 01 01
ORDER 02 : 03 03 03 03 03
ORDER 03 : 02 02 02 02 02
ORDER 04 : 07 07 07 07 07
ORDER 05 : 06 06 06 06 06
ORDER 06 : 05 05 05 05 05
ORDER 07 : 04 04 04 04 04

PATTERN 00
ROW 00 : ... .. . ... : ... .. . ... : A-1 2E . ... : 7-# 03 . ... : ... .. . ...
ROW 01 : ... .. . ... : ... .. . ... : ... .. . ... : ... .. . ... : ... .. . ...
ROW 02 : ... .. . ... : A-1 2E . ... : --- .. . ... : ... .. . ... : ... .. . ...
ROW 03 : ... .. . ... : ... .. . ... : ... .. . ... : 9-# 03 . ... : ... .. . ...
ROW 04 : E-2 2E . ... : --- .. . ... : ... .. . ... : ... .. . ... : ... .. . ...
ROW 05 : ... .. . ... : ... .. . ... : ... .. . ... : ... .. . ... : ... .. . ...
ROW 06 : ... .. . ... : A-2 2E . ... : A-2 2E . ... : 7-# 03 . ... : ... .. . ...
ROW 07 : ... .. . ... : ... .. . ... : ... .. . ... : ... .. . ... : ... .. . ...
ROW 08 : --- .. . ... : --- .. . ... : A-1 2E . ... : 5-# 09 . ... : ... .. . ...
ROW 09 : ... .. . ... : ... .. . ... : ... .. . ... : ... .. . ... : ... .. . ...
ROW 0A : ... .. . ... : A-1 2E . ... : ... .. . ... : ... .. . ... : ... .. . ...
ROW 0B : ... .. . ... : ... .. . ... : ... .. . ... : ... .. . ... : ... .. . ...
ROW 0C : E-2 2E . ... : --- .. . ... : --- .. . ... : ... .. . ... : ... .. . ...
ROW 0D : ... .. . ... : ... .. . ... : ... .. . ... : ... .. . ... : ... .. . ...
ROW 0E : ... .. . ... : A-2 2E . ... : G-1 2E . ... : ... .. . ... : ... .. . ...
ROW 0F : ... .. . ... : ... .. . ... : ... .. . ... : ... .. . ... : ... .. . ...
ROW 10 : --- .. . ... : ... .. . ... : A-1 2E . ... : 4-# 03 . ... : ... .. . ...
ROW 11 : ... .. . ... : ... .. . ... : ... .. . ... : 5-# 03 . ... : ... .. . ...
ROW 12 : ... .. . ... : A-1 2E . ... : ... .. . ... : 7-# 03 . ... : ... .. . ...
ROW 13 : ... .. . ... : ... .. . ... : ... .. . ... : 9-# 03 . ... : ... .. . ...
ROW 14 : E-2 2E . ... : --- .. . ... : ... .. . ... : ... .. . ... : ... .. . ...
ROW 15 : ... .. . ... : ... .. . ... : ... .. . ... : ... .. . ... : ... .. . ...
ROW 16 : ... .. . ... : A-2 2E . ... : A-1 2E . ... : B-# 03 . ... : ... .. . ...
ROW 17 : ... .. . ... : ... .. . ... : --- .. . ... : ... .. . ... : ... .. . ...
ROW 18 : ... .. . ... : ... .. . ... : B-1 2E . ... : 3-# 0C . ... : ... .. . ...
ROW 19 : ... .. . ... : ... .. . ... : ... .. . ... : ... .. . ... : ... .. . ...
ROW 1A : ... .. . ... : A-1 2E . ... : ... .. . ... : ... .. . ... : ... .. . ...
ROW 1B : ... .. . ... : ... .. . ... : ... .. . ... : ... .. . ... : ... .. . ...
ROW 1C : E-2 2E . ... : --- .. . ... : ... .. . ... : ... .. . ... : ... .. . ...
ROW 1D : ... .. . ... : ... .. . ... : ... .. . ... : ... .. . ... : ... .. . ...
ROW 1E : ... .. . ... : A-2 2E . ... : D-3 2E . ... : 4-# 03 . ... : ... .. . ...
ROW 1F : ... .. . ... : ... .. . ... : ... .. . ... : 5-# 03 . ... : ... .. . ...
ROW 20 : --- .. . ... : ... .. . ... : C-2 2E . ... : 7-# 03 . ... : ... .. . ...
ROW 21 : ... .. . ... : ... .. . ... : ... .. . ... : ... .. . ... : ... .. . ...
ROW 22 : ... .. . ... : G-2 2E . ... : ... .. . ... : ... .. . ... : ... .. . ...
ROW 23 : ... .. . ... : ... .. . ... : ... .. . ... : 7-# 03 . ... : ... .. . ...
ROW 24 : E-2 2E . ... : --- .. . ... : ... .. . ... : ... .. . ... : ... .. . ...
ROW 25 : ... .. . ... : ... .. . ... : ... .. . ... : ... .. . ... : ... .. . ...
ROW 26 : ... .. . ... : G-2 2E . ... : ... .. . ... : 8-# 03 . ... : ... .. . ...
ROW 27 : ... .. . ... : ... .. . ... : ... .. . ... : ... .. . ... : ... .. . ...
ROW 28 : ... .. . ... : ... .. . ... : C-3 2E . ... : 9-# 09 . ... : ... .. . ...
ROW 29 : ... .. . ... : ... .. . ... : ... .. . ... : ... .. . ... : ... .. . ...
ROW 2A : ... .. . ... : G-2 2E . ... : ... .. . ... : ... .. . ... : ... .. . ...
ROW 2B : ... .. . ... : ... .. . ... : ... .. . ... : 5-# 03 . ... : ... .. . ...
ROW 2C : E-2 2E . ... : ... .. . ... : --- .. . ... : ... .. . ... : ... .. . ...
ROW 2D : ... .. . ... : ... .. . ... : ... .. . ... : ... .. . ... : ... .. . ...
ROW 2E : ... .. . ... : F#3 2E . ... : ... .. . ... : 2-# 03 . ... : ... .. . ...
ROW 2F : ... .. . ... : ... .. . ... : ... .. . ... : 4-# 03 . ... : ... .. . ...
ROW 30 : --- .. . ... : ... .. . ... : D-3 2E . ... : 5-# 03 . ... : ... .. . ...
ROW 31 : ... .. . ... : ... .. . ... : ... .. . ... : ... .. . ... : ... .. . ...
ROW 32 : ... .. . ... : E-2 2E . ... : ... .. . ... : ... .. . ... : ... .. . ...
ROW 33 : ... .. . ... : ... .. . ... : ... .. . ... : 5-# 03 . ... : ... .. . ...
ROW 34 : E-2 2E . ... : ... .. . ... : --- .. . ... : 7-# 03 . ... : ... .. . ...
ROW 35 : ... .. . ... : ... .. . ... : ... .. . ... : 5-# 03 . ... : ... .. . ...
ROW 36 : ... .. . ... : E-2 2E . ... : ... .. . ... : 7-# 03 . ... : ... .. . ...
ROW 37 : ... .. . ... : ... .. . ... : ... .. . ... : 4-# 03 . ... : ... .. . ...
ROW 38 : --- .. . ... : ... .. . ... : F#3 2E . ... : 3-# 0C . ... : ... .. . ...
ROW 39 : ... .. . ... : ... .. . ... : ... .. . ... : ... .. . ... : ... .. . ...
ROW 3A : ... .. . ... : E-2 2E . ... : ... .. . ... : ... .. . ... : ... .. . ...
ROW 3B : ... .. . ... : ... .. . ... : ... .. . ... : ... .. . ... : ... .. . ...
ROW 3C : E-2 2E . ... : F#3 2E . ... : ... .. . ... : 4-# 09 . ... : ... .. . ...
ROW 3D : ... .. . ... : ... .. . ... : ... .. . ... : 5-# 09 . ... : ... .. . ...
ROW 3E : ... .. . ... : C-3 2E . ... : ... .. . ... : 7-# 09 . ... : ... .. . ...
ROW 3F : ... .. . ... : ... .. . ... : ... .. . ... : 7-# 09 . ... : ... .. . ...

PATTERN 01
ROW 00 : ... .. . ... : ... .. . ... : A-1 2E . ... : 7-# 03 . ... : ... .. . ...
ROW 01 : ... .. . ... : ... .. . ... : ... .. . ... : ... .. . ... : ... .. . ...
ROW 02 : ... .. . ... : A-1 2E . ... : ... .. . ... : ... .. . ... : ... .. . ...
ROW 03 : ... .. . ... : ... .. . ... : ... .. . ... : 9-# 03 . ... : ... .. . ...
ROW 04 : E-2 2E . ... : ... .. . ... : ... .. . ... : ... .. . ... : ... .. . ...
ROW 05 : ... .. . ... : ... .. . ... : ... .. . ... : ... .. . ... : ... .. . ...
ROW 06 : ... .. . ... : A-2 2E . ... : A-2 2E . ... : 7-# 03 . ... : ... .. . ...
ROW 07 : ... .. . ... : ... .. . ... : ... .. . ... : ... .. . ... : ... .. . ...
ROW 08 : ... .. . ... : ... .. . ... : A-1 2E . ... : 5-# 09 . ... : ... .. . ...
ROW 09 : ... .. . ... : ... .. . ... : ... .. . ... : ... .. . ... : ... .. . ...
ROW 0A : ... .. . ... : A-1 2E . ... : ... .. . ... : ... .. . ... : ... .. . ...
ROW 0B : ... .. . ... : ... .. . ... : ... .. . ... : ... .. . ... : ... .. . ...
ROW 0C : E-2 2E . ... : ... .. . ... : ... .. . ... : ... .. . ... : ... .. . ...
ROW 0D : ... .. . ... : ... .. . ... : ... .. . ... : ... .. . ... : ... .. . ...
ROW 0E : ... .. . ... : A-2 2E . ... : G-1 2E . ... : ... .. . ... : ... .. . ...
ROW 0F : ... .. . ... : ... .. . ... : ... .. . ... : ... .. . ... : ... .. . ...
ROW 10 : ... .. . ... : ... .. . ... : A-1 2E . ... : 4-# 03 . ... : ... .. . ...
ROW 11 : ... .. . ... : ... .. . ... : ... .. . ... : 5-# 03 . ... : ... .. . ...
ROW 12 : ... .. . ... : A-1 2E . ... : ... .. . ... : 7-# 03 . ... : ... .. . ...
ROW 13 : ... .. . ... : ... .. . ... : ... .. . ... : 9-# 03 . ... : ... .. . ...
ROW 14 : E-2 2E . ... : ... .. . ... : ... .. . ... : ... .. . ... : ... .. . ...
ROW 15 : ... .. . ... : ... .. . ... : ... .. . ... : ... .. . ... : ... .. . ...
ROW 16 : ... .. . ... : A-2 2E . ... : A-1 2E . ... : B-# 03 . ... : ... .. . ...
ROW 17 : ... .. . ... : ... .. . ... : ... .. . ... : ... .. . ... : ... .. . ...
ROW 18 : ... .. . ... : ... .. . ... : B-1 2E . ... : 3-# 0C . ... : ... .. . ...
ROW 19 : ... .. . ... : ... .. . ... : ... .. . ... : ... .. . ... : ... .. . ...
ROW 1A : ... .. . ... : A-1 2E . ... : ... .. . ... : ... .. . ... : ... .. . ...
ROW 1B : ... .. . ... : ... .. . ... : ... .. . ... : ... .. . ... : ... .. . ...
ROW 1C : E-2 2E . ... : ... .. . ... : ... .. . ... : ... .. . ... : ... .. . ...
ROW 1D : ... .. . ... : ... .. . ... : ... .. . ... : ... .. . ... : ... .. . ...
ROW 1E : ... .. . ... : A-2 2E . ... : D-3 2E . ... : 4-# 03 . ... : ... .. . ...
ROW 1F : ... .. . ... : ... .. . ... : ... .. . ... : 5-# 03 . ... : ... .. . ...
ROW 20 : ... .. . ... : ... .. . ... : C-2 2E . ... : 7-# 03 . ... : ... .. . ...
ROW 21 : ... .. . ... : ... .. . ... : ... .. . ... : ... .. . ... : ... .. . ...
ROW 22 : ... .. . ... : G-2 2E . ... : ... .. . ... : ... .. . ... : ... .. . ...
ROW 23 : ... .. . ... : ... .. . ... : ... .. . ... : 7-# 03 . ... : ... .. . ...
ROW 24 : E-2 2E . ... : ... .. . ... : ... .. . ... : ... .. . ... : ... .. . ...
ROW 25 : ... .. . ... : ... .. . ... : ... .. . ... : ... .. . ... : ... .. . ...
ROW 26 : ... .. . ... : G-2 2E . ... : ... .. . ... : 8-# 03 . ... : ... .. . ...
ROW 27 : ... .. . ... : ... .. . ... : ... .. . ... : ... .. . ... : ... .. . ...
ROW 28 : ... .. . ... : ... .. . ... : C-3 2E . ... : 9-# 09 . ... : ... .. . ...
ROW 29 : ... .. . ... : ... .. . ... : ... .. . ... : ... .. . ... : ... .. . ...
ROW 2A : ... .. . ... : G-2 2E . ... : ... .. . ... : ... .. . ... : ... .. . ...
ROW 2B : ... .. . ... : ... .. . ... : ... .. . ... : 5-# 03 . ... : ... .. . ...
ROW 2C : E-2 2E . ... : ... .. . ... : ... .. . ... : ... .. . ... : ... .. . ...
ROW 2D : ... .. . ... : ... .. . ... : ... .. . ... : ... .. . ... : ... .. . ...
ROW 2E : ... .. . ... : F#3 2E . ... : ... .. . ... : 2-# 03 . ... : ... .. . ...
ROW 2F : ... .. . ... : ... .. . ... : ... .. . ... : 4-# 03 . ... : ... .. . ...
ROW 30 : ... .. . ... : ... .. . ... : D-3 2E . ... : 5-# 03 . ... : ... .. . ...
ROW 31 : ... .. . ... : ... .. . ... : ... .. . ... : ... .. . ... : ... .. . ...
ROW 32 : ... .. . ... : E-2 2E . ... : ... .. . ... : ... .. . ... : ... .. . ...
ROW 33 : ... .. . ... : ... .. . ... : ... .. . ... : 5-# 03 . ... : ... .. . ...
ROW 34 : E-2 2E . ... : ... .. . ... : ... .. . ... : 7-# 03 . ... : ... .. . ...
ROW 35 : ... .. . ... : ... .. . ... : ... .. . ... : 5-# 03 . ... : ... .. . ...
ROW 36 : ... .. . ... : E-2 2E . ... : ... .. . ... : 7-# 03 . ... : ... .. . ...
ROW 37 : ... .. . ... : ... .. . ... : ... .. . ... : 4-# 03 . ... : ... .. . ...
ROW 38 : ... .. . ... : ... .. . ... : F#3 2E . ... : 3-# 0C . ... : ... .. . ...
ROW 39 : ... .. . ... : ... .. . ... : ... .. . ... : ... .. . ... : ... .. . ...
ROW 3A : ... .. . ... : E-2 2E . ... : ... .. . ... : ... .. . ... : ... .. . ...
ROW 3B : ... .. . ... : ... .. . ... : ... .. . ... : ... .. . ... : ... .. . ...
ROW 3C : E-2 2E . ... : F#3 2E . ... : ... .. . ... : 4-# 09 . ... : ... .. . ...
ROW 3D : ... .. . ... : ... .. . ... : ... .. . ... : 5-# 09 . ... : ... .. . ...
ROW 3E : ... .. . ... : C-3 2E . ... : ... .. . ... : 7-# 09 . ... : ... .. . ...
ROW 3F : ... .. . ... : ... .. . ... : ... .. . ... : 7-# 09 . ... : ... .. . ...

PATTERN 02
ROW 00 : E-3 2E . ... : ... .. . ... : A-2 2E . ... : 7-# 03 . ... : ... .. . ...
ROW 01 : ... .. . ... : ... .. . ... : ... .. . ... : 9-# 03 . ... : ... .. . ...
ROW 02 : B-3 2E . ... : A-2 2E . ... : ... .. . ... : 2-# 03 . ... : ... .. . ...
ROW 03 : ... .. . ... : ... .. . ... : ... .. . ... : 5-# 03 . ... : ... .. . ...
ROW 04 : E-3 2E . ... : ... .. . ... : ... .. . ... : 7-# 03 . ... : ... .. . ...
ROW 05 : ... .. . ... : ... .. . ... : ... .. . ... : 5-# 03 . ... : ... .. . ...
ROW 06 : E-2 2E . ... : A-3 2E . ... : A-3 2E . ... : 2-# 03 . ... : ... .. . ...
ROW 07 : ... .. . ... : ... .. . ... : ... .. . ... : 5-# 03 . ... : ... .. . ...
ROW 08 : B-2 2E . ... : ... .. . ... : A-2 2E . ... : 7-# 03 . ... : ... .. . ...
ROW 09 : ... .. . ... : ... .. . ... : ... .. . ... : ... .. . ... : ... .. . ...
ROW 0A : E-2 2E . ... : A-2 2E . ... : ... .. . ... : 2-# 03 . ... : ... .. . ...
ROW 0B : ... .. . ... : ... .. . ... : ... .. . ... : ... .. . ... : ... .. . ...
ROW 0C : E-3 2E . ... : ... .. . ... : ... .. . ... : 7-# 03 . ... : ... .. . ...
ROW 0D : ... .. . ... : ... .. . ... : ... .. . ... : ... .. . ... : ... .. . ...
ROW 0E : B-2 2E . ... : A-3 2E . ... : G-2 2E . ... : 2-# 03 . ... : ... .. . ...
ROW 0F : ... .. . ... : ... .. . ... : ... .. . ... : 2-# 03 . ... : ... .. . ...
ROW 10 : E-2 2E . ... : ... .. . ... : A-2 2E . ... : 7-# 03 . ... : ... .. . ...
ROW 11 : ... .. . ... : ... .. . ... : ... .. . ... : ... .. . ... : ... .. . ...
ROW 12 : B-2 2E . ... : A-2 2E . ... : ... .. . ... : 2-# 03 . ... : ... .. . ...
ROW 13 : ... .. . ... : ... .. . ... : ... .. . ... : ... .. . ... : ... .. . ...
ROW 14 : E-3 2E . ... : ... .. . ... : ... .. . ... : 7-# 03 . ... : ... .. . ...
ROW 15 : ... .. . ... : ... .. . ... : ... .. . ... : ... .. . ... : ... .. . ...
ROW 16 : B-2 2E . ... : A-3 2E . ... : A-2 2E . ... : 2-# 03 . ... : ... .. . ...
ROW 17 : ... .. . ... : ... .. . ... : ... .. . ... : ... .. . ... : ... .. . ...
ROW 18 : E-2 2E . ... : ... .. . ... : B-2 2E . ... : 7-# 03 . ... : ... .. . ...
ROW 19 : ... .. . ... : ... .. . ... : ... .. . ... : ... .. . ... : ... .. . ...
ROW 1A : B-2 2E . ... : A-2 2E . ... : ... .. . ... : 2-# 03 . ... : ... .. . ...
ROW 1B : ... .. . ... : ... .. . ... : ... .. . ... : ... .. . ... : ... .. . ...
ROW 1C : E-3 2E . ... : ... .. . ... : ... .. . ... : 7-# 03 . ... : ... .. . ...
ROW 1D : ... .. . ... : ... .. . ... : ... .. . ... : ... .. . ... : ... .. . ...
ROW 1E : C-3 2E . ... : A-3 2E . ... : D-4 2E . ... : 2-# 03 . ... : ... .. . ...
ROW 1F : ... .. . ... : ... .. . ... : ... .. . ... : 2-# 03 . ... : ... .. . ...
ROW 20 : B-2 2E . ... : ... .. . ... : C-3 2E . ... : 7-# 03 . ... : ... .. . ...
ROW 21 : ... .. . ... : ... .. . ... : ... .. . ... : ... .. . ... : ... .. . ...
ROW 22 : D-2 2E . ... : G-3 2E . ... : ... .. . ... : 2-# 03 . ... : ... .. . ...
ROW 23 : ... .. . ... : ... .. . ... : ... .. . ... : ... .. . ... : ... .. . ...
ROW 24 : E-3 2E . ... : ... .. . ... : ... .. . ... : 7-# 03 . ... : ... .. . ...
ROW 25 : ... .. . ... : ... .. . ... : ... .. . ... : ... .. . ... : ... .. . ...
ROW 26 : ... .. . ... : G-3 2E . ... : ... .. . ... : 2-# 03 . ... : ... .. . ...
ROW 27 : ... .. . ... : ... .. . ... : ... .. . ... : ... .. . ... : ... .. . ...
ROW 28 : D-4 2E . ... : ... .. . ... : C-4 2E . ... : 7-# 03 . ... : ... .. . ...
ROW 29 : ... .. . ... : ... .. . ... : ... .. . ... : ... .. . ... : ... .. . ...
ROW 2A : F#4 2E . ... : G-3 2E . ... : ... .. . ... : 2-# 03 . ... : ... .. . ...
ROW 2B : ... .. . ... : ... .. . ... : ... .. . ... : ... .. . ... : ... .. . ...
ROW 2C : E-3 2E . ... : ... .. . ... : ... .. . ... : 7-# 03 . ... : ... .. . ...
ROW 2D : ... .. . ... : ... .. . ... : ... .. . ... : ... .. . ... : ... .. . ...
ROW 2E : F#3 2E . ... : F#4 2E . ... : ... .. . ... : 2-# 03 . ... : ... .. . ...
ROW 2F : ... .. . ... : ... .. . ... : ... .. . ... : 2-# 03 . ... : ... .. . ...
ROW 30 : ... .. . ... : ... .. . ... : D-4 2E . ... : 7-# 03 . ... : ... .. . ...
ROW 31 : ... .. . ... : ... .. . ... : ... .. . ... : 7-# 03 . ... : ... .. . ...
ROW 32 : ... .. . ... : E-3 2E . ... : ... .. . ... : 2-# 03 . ... : ... .. . ...
ROW 33 : ... .. . ... : ... .. . ... : ... .. . ... : 9-# 03 . ... : ... .. . ...
ROW 34 : E-3 2E . ... : ... .. . ... : ... .. . ... : 7-# 03 . ... : ... .. . ...
ROW 35 : ... .. . ... : ... .. . ... : ... .. . ... : B-# 03 . ... : ... .. . ...
ROW 36 : ... .. . ... : E-3 2E . ... : ... .. . ... : 2-# 03 . ... : ... .. . ...
ROW 37 : ... .. . ... : ... .. . ... : ... .. . ... : C-# 03 . ... : ... .. . ...
ROW 38 : ... .. . ... : ... .. . ... : F#4 2E . ... : 7-# 03 . ... : ... .. . ...
ROW 39 : ... .. . ... : ... .. . ... : ... .. . ... : ... .. . ... : ... .. . ...
ROW 3A : ... .. . ... : E-3 2E . ... : ... .. . ... : 2-# 03 . ... : ... .. . ...
ROW 3B : ... .. . ... : ... .. . ... : ... .. . ... : ... .. . ... : ... .. . ...
ROW 3C : E-3 2E . ... : F#4 2E . ... : ... .. . ... : 7-# 03 . ... : ... .. . ...
ROW 3D : ... .. . ... : ... .. . ... : ... .. . ... : ... .. . ... : ... .. . ...
ROW 3E : ... .. . ... : C-4 2E . ... : ... .. . ... : 2-# 03 . ... : ... .. . ...
ROW 3F : ... .. . ... : ... .. . ... : ... .. . ... : ... .. . ... : ... .. . ...

PATTERN 03
ROW 00 : C-4 2E . ... : ... .. . ... : A-2 2E . ... : 7-# 03 . ... : ... .. . ...
ROW 01 : ... .. . ... : ... .. . ... : ... .. . ... : 9-# 03 . ... : ... .. . ...
ROW 02 : B-4 2E . ... : A-2 2E . ... : B-3 2E . ... : 2-# 03 . ... : ... .. . ...
ROW 03 : ... .. . ... : ... .. . ... : ... .. . ... : 5-# 03 . ... : ... .. . ...
ROW 04 : A-4 2E . ... : A-1 2E . ... : C-4 2E . ... : 7-# 03 . ... : ... .. . ...
ROW 05 : ... .. . ... : ... .. . ... : ... .. . ... : 5-# 03 . ... : ... .. . ...
ROW 06 : ... .. . ... : A-3 2E . ... : A-3 2E . ... : 2-# 03 . ... : ... .. . ...
ROW 07 : ... .. . ... : ... .. . ... : ... .. . ... : 5-# 03 . ... : ... .. . ...
ROW 08 : ... .. . ... : A-1 2E . ... : A-2 2E . ... : 7-# 03 . ... : ... .. . ...
ROW 09 : ... .. . ... : ... .. . ... : ... .. . ... : ... .. . ... : ... .. . ...
ROW 0A : ... .. . ... : A-2 2E . ... : ... .. . ... : 2-# 03 . ... : ... .. . ...
ROW 0B : ... .. . ... : ... .. . ... : ... .. . ... : ... .. . ... : ... .. . ...
ROW 0C : D-4 2E . ... : ... .. . ... : ... .. . ... : 7-# 03 . ... : ... .. . ...
ROW 0D : ... .. . ... : ... .. . ... : ... .. . ... : ... .. . ... : ... .. . ...
ROW 0E : ... .. . ... : A-3 2E . ... : G-2 2E . ... : 2-# 03 . ... : ... .. . ...
ROW 0F : ... .. . ... : ... .. . ... : ... .. . ... : 2-# 03 . ... : ... .. . ...
ROW 10 : E-4 2E . ... : ... .. . ... : A-2 2E . ... : 7-# 03 . ... : ... .. . ...
ROW 11 : F-4 2E . ... : ... .. . ... : ... .. . ... : ... .. . ... : ... .. . ...
ROW 12 : E-4 2E . ... : A-2 2E . ... : ... .. . ... : 2-# 03 . ... : ... .. . ...
ROW 13 : ... .. . ... : ... .. . ... : ... .. . ... : ... .. . ... : ... .. . ...
ROW 14 : E-3 2E . ... : ... .. . ... : ... .. . ... : 7-# 03 . ... : ... .. . ...
ROW 15 : ... .. . ... : ... .. . ... : ... .. . ... : ... .. . ... : ... .. . ...
ROW 16 : ... .. . ... : A-3 2E . ... : A-2 2E . ... : 2-# 03 . ... : ... .. . ...
ROW 17 : ... .. . ... : ... .. . ... : ... .. . ... : ... .. . ... : ... .. . ...
ROW 18 : ... .. . ... : ... .. . ... : B-2 2E . ... : 7-# 03 . ... : ... .. . ...
ROW 19 : ... .. . ... : ... .. . ... : ... .. . ... : ... .. . ... : ... .. . ...
ROW 1A : ... .. . ... : A-2 2E . ... : ... .. . ... : 2-# 03 . ... : ... .. . ...
ROW 1B : ... .. . ... : ... .. . ... : ... .. . ... : ... .. . ... : ... .. . ...
ROW 1C : ... .. . ... : ... .. . ... : ... .. . ... : 7-# 03 . ... : ... .. . ...
ROW 1D : ... .. . ... : ... .. . ... : ... .. . ... : ... .. . ... : ... .. . ...
ROW 1E : ... .. . ... : A-3 2E . ... : D-4 2E . ... : 2-# 03 . ... : ... .. . ...
ROW 1F : ... .. . ... : ... .. . ... : ... .. . ... : 2-# 03 . ... : ... .. . ...
ROW 20 : E-4 2E . ... : ... .. . ... : C-3 2E . ... : 7-# 03 . ... : ... .. . ...
ROW 21 : ... .. . ... : ... .. . ... : ... .. . ... : ... .. . ... : ... .. . ...
ROW 22 : E-2 2E . ... : G-3 2E . ... : ... .. . ... : 2-# 03 . ... : ... .. . ...
ROW 23 : ... .. . ... : ... .. . ... : ... .. . ... : ... .. . ... : ... .. . ...
ROW 24 : E-3 2E . ... : ... .. . ... : ... .. . ... : 7-# 03 . ... : ... .. . ...
ROW 25 : ... .. . ... : ... .. . ... : ... .. . ... : ... .. . ... : ... .. . ...
ROW 26 : ... .. . ... : G-3 2E . ... : ... .. . ... : 2-# 03 . ... : ... .. . ...
ROW 27 : ... .. . ... : ... .. . ... : ... .. . ... : ... .. . ... : ... .. . ...
ROW 28 : F#4 2E . ... : ... .. . ... : C-4 2E . ... : 7-# 03 . ... : ... .. . ...
ROW 29 : ... .. . ... : ... .. . ... : ... .. . ... : ... .. . ... : ... .. . ...
ROW 2A : G-4 2E . ... : G-3 2E . ... : ... .. . ... : 2-# 03 . ... : ... .. . ...
ROW 2B : F#4 2E . ... : ... .. . ... : ... .. . ... : ... .. . ... : ... .. . ...
ROW 2C : G-4 2E . ... : ... .. . ... : ... .. . ... : 7-# 03 . ... : ... .. . ...
ROW 2D : ... .. . ... : ... .. . ... : ... .. . ... : ... .. . ... : ... .. . ...
ROW 2E : ... .. . ... : F#4 2E . ... : ... .. . ... : 2-# 03 . ... : ... .. . ...
ROW 2F : ... .. . ... : ... .. . ... : ... .. . ... : 2-# 03 . ... : ... .. . ...
ROW 30 : B-4 2E . ... : ... .. . ... : D-4 2E . ... : 7-# 03 . ... : ... .. . ...
ROW 31 : ... .. . ... : ... .. . ... : ... .. . ... : 7-# 03 . ... : ... .. . ...
ROW 32 : C-5 2E . ... : E-3 2E . ... : ... .. . ... : 2-# 03 . ... : ... .. . ...
ROW 33 : ... .. . ... : ... .. . ... : ... .. . ... : 9-# 03 . ... : ... .. . ...
ROW 34 : B-4 2E . ... : ... .. . ... : ... .. . ... : 7-# 03 . ... : ... .. . ...
ROW 35 : ... .. . ... : ... .. . ... : ... .. . ... : B-# 03 . ... : ... .. . ...
ROW 36 : A-4 2E . ... : E-3 2E . ... : ... .. . ... : 2-# 03 . ... : ... .. . ...
ROW 37 : ... .. . ... : ... .. . ... : ... .. . ... : C-# 03 . ... : ... .. . ...
ROW 38 : ... .. . ... : ... .. . ... : F#4 2E . ... : 7-# 03 . ... : ... .. . ...
ROW 39 : ... .. . ... : ... .. . ... : ... .. . ... : ... .. . ... : ... .. . ...
ROW 3A : ... .. . ... : E-3 2E . ... : ... .. . ... : 2-# 03 . ... : ... .. . ...
ROW 3B : ... .. . ... : ... .. . ... : ... .. . ... : ... .. . ... : ... .. . ...
ROW 3C : E-3 2E . ... : F#4 2E . ... : ... .. . ... : 7-# 03 . ... : ... .. . ...
ROW 3D : ... .. . ... : ... .. . ... : ... .. . ... : ... .. . ... : ... .. . ...
ROW 3E : ... .. . ... : C-4 2E . ... : ... .. . ... : 2-# 03 . ... : ... .. . ...
ROW 3F : ... .. . ... : ... .. . ... : ... .. . ... : ... .. . ... : ... .. . ...

PATTERN 04
ROW 00 : ... .. . ... : ... .. . ... : A-1 2E . ... : 7-# 03 . ... : ... .. . ...
ROW 01 : ... .. . ... : ... .. . ... : ... .. . ... : ... .. . ... : ... .. . ...
ROW 02 : ... .. . ... : A-1 2E . ... : A-2 2E . ... : ... .. . ... : ... .. . ...
ROW 03 : ... .. . ... : ... .. . ... : ... .. . ... : 9-# 03 . ... : ... .. . ...
ROW 04 : E-2 2E . ... : A-2 2E . ... : A-1 2E . ... : ... .. . ... : ... .. . ...
ROW 05 : ... .. . ... : ... .. . ... : ... .. . ... : ... .. . ... : ... .. . ...
ROW 06 : E-3 2E . ... : A-2 2E . ... : A-2 2E . ... : 7-# 03 . ... : ... .. . ...
ROW 07 : ... .. . ... : ... .. . ... : ... .. . ... : ... .. . ... : ... .. . ...
ROW 08 : ... .. . ... : A-3 2E . ... : A-1 2E . ... : 5-# 09 . ... : ... .. . ...
ROW 09 : ... .. . ... : ... .. . ... : ... .. . ... : ... .. . ... : ... .. . ...
ROW 0A : ... .. . ... : A-1 2E . ... : A-2 2E . ... : ... .. . ... : ... .. . ...
ROW 0B : ... .. . ... : ... .. . ... : ... .. . ... : ... .. . ... : ... .. . ...
ROW 0C : E-2 2E . ... : A-2 2E . ... : A-1 2E . ... : ... .. . ... : ... .. . ...
ROW 0D : ... .. . ... : ... .. . ... : ... .. . ... : ... .. . ... : ... .. . ...
ROW 0E : E-3 2E . ... : A-2 2E . ... : G-1 2E . ... : ... .. . ... : ... .. . ...
ROW 0F : ... .. . ... : ... .. . ... : ... .. . ... : ... .. . ... : ... .. . ...
ROW 10 : ... .. . ... : A-3 2E . ... : A-1 2E . ... : 4-# 03 . ... : ... .. . ...
ROW 11 : ... .. . ... : ... .. . ... : ... .. . ... : 5-# 03 . ... : ... .. . ...
ROW 12 : ... .. . ... : A-1 2E . ... : A-2 2E . ... : 7-# 03 . ... : ... .. . ...
ROW 13 : ... .. . ... : ... .. . ... : ... .. . ... : 9-# 03 . ... : ... .. . ...
ROW 14 : E-2 2E . ... : A-2 2E . ... : A-1 2E . ... : ... .. . ... : ... .. . ...
ROW 15 : ... .. . ... : ... .. . ... : ... .. . ... : ... .. . ... : ... .. . ...
ROW 16 : E-3 2E . ... : A-2 2E . ... : A-1 2E . ... : B-# 03 . ... : ... .. . ...
ROW 17 : ... .. . ... : ... .. . ... : ... .. . ... : ... .. . ... : ... .. . ...
ROW 18 : ... .. . ... : A-3 2E . ... : B-1 2E . ... : 3-# 0C . ... : ... .. . ...
ROW 19 : ... .. . ... : ... .. . ... : ... .. . ... : ... .. . ... : ... .. . ...
ROW 1A : ... .. . ... : A-1 2E . ... : B-2 2E . ... : ... .. . ... : ... .. . ...
ROW 1B : ... .. . ... : ... .. . ... : ... .. . ... : ... .. . ... : ... .. . ...
ROW 1C : E-2 2E . ... : A-2 2E . ... : B-1 2E . ... : ... .. . ... : ... .. . ...
ROW 1D : ... .. . ... : ... .. . ... : ... .. . ... : ... .. . ... : ... .. . ...
ROW 1E : E-3 2E . ... : A-2 2E . ... : D-3 2E . ... : 4-# 03 . ... : ... .. . ...
ROW 1F : ... .. . ... : ... .. . ... : ... .. . ... : 5-# 03 . ... : ... .. . ...
ROW 20 : ... .. . ... : A-3 2E . ... : C-2 2E . ... : 7-# 03 . ... : ... .. . ...
ROW 21 : ... .. . ... : ... .. . ... : ... .. . ... : ... .. . ... : ... .. . ...
ROW 22 : ... .. . ... : G-2 2E . ... : C-3 2E . ... : ... .. . ... : ... .. . ...
ROW 23 : ... .. . ... : ... .. . ... : ... .. . ... : 7-# 03 . ... : ... .. . ...
ROW 24 : E-2 2E . ... : G-3 2E . ... : C-2 2E . ... : ... .. . ... : ... .. . ...
ROW 25 : ... .. . ... : ... .. . ... : ... .. . ... : ... .. . ... : ... .. . ...
ROW 26 : E-3 2E . ... : G-2 2E . ... : C-3 2E . ... : 8-# 03 . ... : ... .. . ...
ROW 27 : ... .. . ... : ... .. . ... : ... .. . ... : ... .. . ... : ... .. . ...
ROW 28 : ... .. . ... : G-3 2E . ... : C-3 2E . ... : 9-# 09 . ... : ... .. . ...
ROW 29 : ... .. . ... : ... .. . ... : ... .. . ... : ... .. . ... : ... .. . ...
ROW 2A : ... .. . ... : G-2 2E . ... : C-4 2E . ... : ... .. . ... : ... .. . ...
ROW 2B : ... .. . ... : ... .. . ... : ... .. . ... : 5-# 03 . ... : ... .. . ...
ROW 2C : E-2 2E . ... : G-3 2E . ... : C-3 2E . ... : ... .. . ... : ... .. . ...
ROW 2D : ... .. . ... : ... .. . ... : ... .. . ... : ... .. . ... : ... .. . ...
ROW 2E : E-3 2E . ... : F#3 2E . ... : C-4 2E . ... : 2-# 03 . ... : ... .. . ...
ROW 2F : ... .. . ... : ... .. . ... : ... .. . ... : 4-# 03 . ... : ... .. . ...
ROW 30 : ... .. . ... : F#4 2E . ... : D-3 2E . ... : 5-# 03 . ... : ... .. . ...
ROW 31 : ... .. . ... : ... .. . ... : ... .. . ... : ... .. . ... : ... .. . ...
ROW 32 : ... .. . ... : E-2 2E . ... : D-4 2E . ... : ... .. . ... : ... .. . ...
ROW 33 : ... .. . ... : ... .. . ... : ... .. . ... : 5-# 03 . ... : ... .. . ...
ROW 34 : E-2 2E . ... : E-3 2E . ... : D-3 2E . ... : 7-# 03 . ... : ... .. . ...
ROW 35 : ... .. . ... : ... .. . ... : ... .. . ... : 5-# 03 . ... : ... .. . ...
ROW 36 : E-3 2E . ... : E-2 2E . ... : D-4 2E . ... : 7-# 03 . ... : ... .. . ...
ROW 37 : ... .. . ... : ... .. . ... : ... .. . ... : 4-# 03 . ... : ... .. . ...
ROW 38 : ... .. . ... : E-3 2E . ... : F#3 2E . ... : 3-# 0C . ... : ... .. . ...
ROW 39 : ... .. . ... : ... .. . ... : ... .. . ... : ... .. . ... : ... .. . ...
ROW 3A : ... .. . ... : E-2 2E . ... : F#4 2E . ... : ... .. . ... : ... .. . ...
ROW 3B : ... .. . ... : ... .. . ... : ... .. . ... : ... .. . ... : ... .. . ...
ROW 3C : E-2 2E . ... : F#3 2E . ... : F#3 2E . ... : 4-# 09 . ... : ... .. . ...
ROW 3D : ... .. . ... : ... .. . ... : ... .. . ... : 5-# 09 . ... : ... .. . ...
ROW 3E : E-3 2E . ... : C-3 2E . ... : F#4 2E . ... : 7-# 09 . ... : ... .. . ...
ROW 3F : ... .. . ... : ... .. . ... : ... .. . B00 : 7-# 09 . ... : ... .. . ...

PATTERN 05
ROW 00 : A-2 2E . ... : ... .. . ... : A-1 2E . ... : 7-# 03 . ... : ... .. . ...
ROW 01 : C-3 2E . ... : ... .. . ... : ... .. . ... : ... .. . ... : ... .. . ...
ROW 02 : E-3 2E . ... : A-1 2E . ... : A-4 2E . ... : ... .. . ... : ... .. . ...
ROW 03 : C-3 2E . ... : ... .. . ... : ... .. . ... : 9-# 03 . ... : ... .. . ...
ROW 04 : A-2 2E . ... : ... .. . ... : C-4 2E . ... : ... .. . ... : ... .. . ...
ROW 05 : C-3 2E . ... : ... .. . ... : ... .. . ... : ... .. . ... : ... .. . ...
ROW 06 : E-3 2E . ... : A-2 2E . ... : A-2 2E . ... : 7-# 03 . ... : ... .. . ...
ROW 07 : C-3 2E . ... : ... .. . ... : ... .. . ... : ... .. . ... : ... .. . ...
ROW 08 : A-2 2E . ... : ... .. . ... : A-1 2E . ... : 5-# 09 . ... : ... .. . ...
ROW 09 : C-3 2E . ... : ... .. . ... : ... .. . ... : ... .. . ... : ... .. . ...
ROW 0A : E-3 2E . ... : A-1 2E . ... : C-4 2E . ... : ... .. . ... : ... .. . ...
ROW 0B : C-3 2E . ... : ... .. . ... : ... .. . ... : ... .. . ... : ... .. . ...
ROW 0C : A-2 2E . ... : ... .. . ... : B-4 2E . ... : ... .. . ... : ... .. . ...
ROW 0D : C-3 2E . ... : ... .. . ... : ... .. . ... : ... .. . ... : ... .. . ...
ROW 0E : E-3 2E . ... : A-2 2E . ... : G-1 2E . ... : ... .. . ... : ... .. . ...
ROW 0F : C-3 2E . ... : ... .. . ... : ... .. . ... : ... .. . ... : ... .. . ...
ROW 10 : A-2 2E . ... : ... .. . ... : A-4 2E . ... : 4-# 03 . ... : ... .. . ...
ROW 11 : C-3 2E . ... : ... .. . ... : ... .. . ... : 5-# 03 . ... : ... .. . ...
ROW 12 : E-3 2E . ... : A-1 2E . ... : ... .. . ... : 7-# 03 . ... : ... .. . ...
ROW 13 : C-3 2E . ... : ... .. . ... : C-4 2E . ... : 9-# 03 . ... : ... .. . ...
ROW 14 : A-2 2E . ... : ... .. . ... : ... .. . ... : ... .. . ... : ... .. . ...
ROW 15 : C-3 2E . ... : ... .. . ... : ... .. . ... : ... .. . ... : ... .. . ...
ROW 16 : E-3 2E . ... : A-2 2E . ... : D-4 2E . ... : B-# 03 . ... : ... .. . ...
ROW 17 : C-3 2E . ... : ... .. . ... : ... .. . ... : ... .. . ... : ... .. . ...
ROW 18 : B-2 2E . ... : ... .. . ... : E-4 2E . ... : 3-# 0C . ... : ... .. . ...
ROW 19 : C-3 2E . ... : ... .. . ... : ... .. . ... : ... .. . ... : ... .. . ...
ROW 1A : D-3 2E . ... : A-1 2E . ... : ... .. . ... : ... .. . ... : ... .. . ...
ROW 1B : B-2 2E . ... : ... .. . ... : ... .. . ... : ... .. . ... : ... .. . ...
ROW 1C : B-2 2E . ... : ... .. . ... : ... .. . ... : ... .. . ... : ... .. . ...
ROW 1D : C-3 2E . ... : ... .. . ... : ... .. . ... : ... .. . ... : ... .. . ...
ROW 1E : D-3 2E . ... : A-2 2E . ... : D-3 2E . ... : 4-# 03 . ... : ... .. . ...
ROW 1F : B-2 2E . ... : ... .. . ... : ... .. . ... : 5-# 03 . ... : ... .. . ...
ROW 20 : C-3 2E . ... : ... .. . ... : C-4 2E . ... : 7-# 03 . ... : ... .. . ...
ROW 21 : E-3 2E . ... : ... .. . ... : E-4 2E . ... : ... .. . ... : ... .. . ...
ROW 22 : G-3 2E . ... : G-2 2E . ... : G-4 2E . ... : ... .. . ... : ... .. . ...
ROW 23 : E-3 2E . ... : ... .. . ... : E-4 2E . ... : 7-# 03 . ... : ... .. . ...
ROW 24 : C-3 2E . ... : ... .. . ... : C-4 2E . ... : ... .. . ... : ... .. . ...
ROW 25 : E-3 2E . ... : ... .. . ... : E-4 2E . ... : ... .. . ... : ... .. . ...
ROW 26 : G-3 2E . ... : G-2 2E . ... : G-4 2E . ... : 8-# 03 . ... : ... .. . ...
ROW 27 : E-3 2E . ... : ... .. . ... : E-4 2E . ... : ... .. . ... : ... .. . ...
ROW 28 : C-3 2E . ... : ... .. . ... : C-4 2E . ... : 9-# 09 . ... : ... .. . ...
ROW 29 : E-3 2E . ... : ... .. . ... : E-4 2E . ... : ... .. . ... : ... .. . ...
ROW 2A : G-3 2E . ... : G-2 2E . ... : G-4 2E . ... : ... .. . ... : ... .. . ...
ROW 2B : C-3 2E . ... : ... .. . ... : C-4 2E . ... : 5-# 03 . ... : ... .. . ...
ROW 2C : D-3 2E . ... : ... .. . ... : D-4 2E . ... : ... .. . ... : ... .. . ...
ROW 2D : F#3 2E . ... : ... .. . ... : F#4 2E . ... : ... .. . ... : ... .. . ...
ROW 2E : A-3 2E . ... : F#3 2E . ... : A-4 2E . ... : 2-# 03 . ... : ... .. . ...
ROW 2F : D-3 2E . ... : ... .. . ... : D-4 2E . ... : 4-# 03 . ... : ... .. . ...
ROW 30 : F#3 2E . ... : ... .. . ... : F#4 2E . ... : 5-# 03 . ... : ... .. . ...
ROW 31 : A-3 2E . ... : ... .. . ... : A-4 2E . ... : ... .. . ... : ... .. . ...
ROW 32 : D-3 2E . ... : E-2 2E . ... : D-4 2E . ... : ... .. . ... : ... .. . ...
ROW 33 : F#3 2E . ... : ... .. . ... : F#4 2E . ... : 5-# 03 . ... : ... .. . ...
ROW 34 : A-3 2E . ... : ... .. . ... : A-4 2E . ... : 7-# 03 . ... : ... .. . ...
ROW 35 : B-3 2E . ... : ... .. . ... : B-4 2E . ... : 5-# 03 . ... : ... .. . ...
ROW 36 : G-3 2E . ... : E-2 2E . ... : G-4 2E . ... : 7-# 03 . ... : ... .. . ...
ROW 37 : A-3 2E . ... : ... .. . ... : A-4 2E . ... : 4-# 03 . ... : ... .. . ...
ROW 38 : B-3 2E . ... : ... .. . ... : B-4 2E . ... : 3-# 0C . ... : ... .. . ...
ROW 39 : C-4 2E . ... : ... .. . ... : C-4 2E . ... : ... .. . ... : ... .. . ...
ROW 3A : B-3 2E . ... : E-2 2E . ... : B-4 2E . ... : ... .. . ... : ... .. . ...
ROW 3B : C-4 2E . ... : ... .. . ... : C-4 2E . ... : ... .. . ... : ... .. . ...
ROW 3C : B-3 2E . ... : F#3 2E . ... : B-4 2E . ... : 4-# 09 . ... : ... .. . ...
ROW 3D : A-3 2E . ... : ... .. . ... : A-4 2E . ... : 5-# 09 . ... : ... .. . ...
ROW 3E : ... .. . ... : C-3 2E . ... : ... .. . ... : 7-# 09 . ... : ... .. . ...
ROW 3F : ... .. . ... : ... .. . ... : ... .. . ... : 7-# 09 . ... : ... .. . ...

PATTERN 06
ROW 00 : D-3 13 . ... : D-3 2E . ... : D-2 2E . ... : 7-# 03 . ... : ... .. . ...
ROW 01 : ... .. . ... : --- .. . ... : ... .. . ... : ... .. . ... : ... .. . ...
ROW 02 : ... .. . ... : D-2 2E . ... : ... .. . ... : ... .. . ... : ... .. . ...
ROW 03 : ... .. . ... : --- .. . ... : ... .. . ... : 9-# 03 . ... : ... .. . ...
ROW 04 : ... .. . ... : D-4 2E . ... : ... .. . ... : ... .. . ... : ... .. . ...
ROW 05 : ... .. . ... : --- .. . ... : ... .. . ... : ... .. . ... : ... .. . ...
ROW 06 : ... .. . ... : D-3 2E . ... : D-3 2E . ... : 7-# 03 . ... : ... .. . ...
ROW 07 : ... .. . ... : --- .. . ... : ... .. . ... : ... .. . ... : ... .. . ...
ROW 08 : A-2 13 . ... : D-3 2E . ... : D-2 2E . ... : 5-# 09 . ... : ... .. . ...
ROW 09 : ... .. . ... : --- .. . ... : ... .. . ... : ... .. . ... : ... .. . ...
ROW 0A : ... .. . ... : D-2 2E . ... : ... .. . ... : ... .. . ... : ... .. . ...
ROW 0B : ... .. . ... : --- .. . ... : ... .. . ... : ... .. . ... : ... .. . ...
ROW 0C : ... .. . ... : D-4 2E . ... : ... .. . ... : ... .. . ... : ... .. . ...
ROW 0D : ... .. . ... : --- .. . ... : ... .. . ... : ... .. . ... : ... .. . ...
ROW 0E : ... .. . ... : D-3 2E . ... : C-2 2E . ... : ... .. . ... : ... .. . ...
ROW 0F : ... .. . ... : --- .. . ... : ... .. . ... : ... .. . ... : ... .. . ...
ROW 10 : E-3 1C . ... : D-3 2E . ... : D-2 2E . ... : 4-# 03 . ... : ... .. . ...
ROW 11 : ... .. . ... : --- .. . ... : ... .. . ... : 5-# 03 . ... : ... .. . ...
ROW 12 : ... .. . ... : D-2 2E . ... : ... .. . ... : 7-# 03 . ... : ... .. . ...
ROW 13 : ... .. . ... : --- .. . ... : ... .. . ... : 9-# 03 . ... : ... .. . ...
ROW 14 : A-2 2E . ... : D-4 2E . ... : ... .. . ... : ... .. . ... : ... .. . ...
ROW 15 : ... .. . ... : --- .. . ... : ... .. . ... : ... .. . ... : ... .. . ...
ROW 16 : ... .. . ... : D-3 2E . ... : D-2 2E . ... : B-# 03 . ... : ... .. . ...
ROW 17 : ... .. . ... : --- .. . ... : ... .. . ... : ... .. . ... : ... .. . ...
ROW 18 : A-3 1C . ... : D-3 2E . ... : E-2 2E . ... : 3-# 0C . ... : ... .. . ...
ROW 19 : ... .. . ... : --- .. . ... : ... .. . ... : ... .. . ... : ... .. . ...
ROW 1A : ... .. . ... : D-2 2E . ... : ... .. . ... : ... .. . ... : ... .. . ...
ROW 1B : ... .. . ... : --- .. . ... : ... .. . ... : ... .. . ... : ... .. . ...
ROW 1C : A-2 2E . ... : D-4 2E . ... : ... .. . ... : ... .. . ... : ... .. . ...
ROW 1D : ... .. . ... : --- .. . ... : ... .. . ... : ... .. . ... : ... .. . ...
ROW 1E : ... .. . ... : D-3 2E . ... : G-3 2E . ... : 4-# 03 . ... : ... .. . ...
ROW 1F : ... .. . ... : --- .. . ... : ... .. . ... : 5-# 03 . ... : ... .. . ...
ROW 20 : C-3 14 . ... : C-4 2E . ... : F-2 2E . ... : 7-# 03 . ... : ... .. . ...
ROW 21 : ... .. . ... : --- .. . ... : ... .. . ... : ... .. . ... : ... .. . ...
ROW 22 : ... .. . ... : C-3 2E . ... : ... .. . ... : ... .. . ... : ... .. . ...
ROW 23 : ... .. . ... : --- .. . ... : ... .. . ... : 7-# 03 . ... : ... .. . ...
ROW 24 : ... .. . ... : C-4 2E . ... : ... .. . ... : ... .. . ... : ... .. . ...
ROW 25 : ... .. . ... : --- .. . ... : ... .. . ... : ... .. . ... : ... .. . ...
ROW 26 : ... .. . ... : C-3 2E . ... : ... .. . ... : 8-# 03 . ... : ... .. . ...
ROW 27 : ... .. . ... : --- .. . ... : ... .. . ... : ... .. . ... : ... .. . ...
ROW 28 : G-3 14 . ... : C-4 2E . ... : F-3 2E . ... : 9-# 09 . ... : ... .. . ...
ROW 29 : ... .. . ... : --- .. . ... : ... .. . ... : ... .. . ... : ... .. . ...
ROW 2A : ... .. . ... : C-3 2E . ... : ... .. . ... : ... .. . ... : ... .. . ...
ROW 2B : ... .. . ... : --- .. . ... : ... .. . ... : 5-# 03 . ... : ... .. . ...
ROW 2C : A-2 2E . ... : B-4 2E . ... : ... .. . ... : ... .. . ... : ... .. . ...
ROW 2D : ... .. . ... : --- .. . ... : ... .. . ... : ... .. . ... : ... .. . ...
ROW 2E : ... .. . ... : B-3 2E . ... : ... .. . ... : 2-# 03 . ... : ... .. . ...
ROW 2F : ... .. . ... : --- .. . ... : ... .. . ... : 4-# 03 . ... : ... .. . ...
ROW 30 : A-2 2D . ... : A-3 2E . ... : G-3 2E . ... : 5-# 03 . ... : ... .. . ...
ROW 31 : ... .. . ... : --- .. . ... : ... .. . ... : ... .. . ... : ... .. . ...
ROW 32 : ... .. . ... : A-2 2E . ... : ... .. . ... : ... .. . ... : ... .. . ...
ROW 33 : ... .. . ... : ... .. . ... : ... .. . ... : 5-# 03 . ... : ... .. . ...
ROW 34 : A-2 2E . ... : A-3 2E . ... : ... .. . ... : 7-# 03 . ... : ... .. . ...
ROW 35 : ... .. . ... : ... .. . ... : ... .. . ... : 5-# 03 . ... : ... .. . ...
ROW 36 : ... .. . ... : A-2 2E . ... : ... .. . ... : 7-# 03 . ... : ... .. . ...
ROW 37 : ... .. . ... : ... .. . ... : ... .. . ... : 4-# 03 . ... : ... .. . ...
ROW 38 : ... .. . ... : A-3 2E . ... : B-3 2E . ... : 3-# 0C . ... : ... .. . ...
ROW 39 : ... .. . ... : ... .. . ... : ... .. . ... : ... .. . ... : ... .. . ...
ROW 3A : ... .. . ... : A-2 2E . ... : ... .. . ... : ... .. . ... : ... .. . ...
ROW 3B : ... .. . ... : ... .. . ... : ... .. . ... : ... .. . ... : ... .. . ...
ROW 3C : A-2 2E . ... : B-3 2E . ... : ... .. . ... : 4-# 09 . ... : ... .. . ...
ROW 3D : ... .. . ... : ... .. . ... : ... .. . ... : 5-# 09 . ... : ... .. . ...
ROW 3E : D-4 2E . ... : F-3 2E . ... : ... .. . ... : 7-# 09 . ... : ... .. . ...
ROW 3F : C-4 2E . ... : ... .. . ... : ... .. . ... : 7-# 09 . ... : ... .. . ...

PATTERN 07
ROW 00 : ... .. . ... : ... .. . ... : A-1 2E . ... : 7-# 03 . ... : ... .. . ...
ROW 01 : ... .. . ... : ... .. . ... : ... .. . ... : ... .. . ... : ... .. . ...
ROW 02 : ... .. . ... : A-1 2E . ... : --- .. . ... : ... .. . ... : ... .. . ...
ROW 03 : ... .. . ... : ... .. . ... : ... .. . ... : 9-# 03 . ... : ... .. . ...
ROW 04 : E-2 2E . ... : A-3 0D . ... : ... .. . ... : ... .. . ... : ... .. . ...
ROW 05 : C-4 0D . ... : ... .. . ... : ... .. . ... : ... .. . ... : ... .. . ...
ROW 06 : E-4 0D . ... : A-2 2E . ... : A-2 2E . ... : 7-# 03 . ... : ... .. . ...
ROW 07 : ... .. . ... : ... .. . ... : ... .. . ... : ... .. . ... : ... .. . ...
ROW 08 : --- .. . ... : --- .. . ... : A-1 2E . ... : 5-# 09 . ... : ... .. . ...
ROW 09 : ... .. . ... : ... .. . ... : ... .. . ... : ... .. . ... : ... .. . ...
ROW 0A : ... .. . ... : A-1 2E . ... : ... .. . ... : ... .. . ... : ... .. . ...
ROW 0B : ... .. . ... : ... .. . ... : ... .. . ... : ... .. . ... : ... .. . ...
ROW 0C : E-4 0D . ... : --- .. . ... : --- .. . ... : ... .. . ... : ... .. . ...
ROW 0D : D-4 0D . ... : ... .. . ... : ... .. . ... : ... .. . ... : ... .. . ...
ROW 0E : C-4 0D . ... : A-2 2E . ... : G-1 2E . ... : ... .. . ... : ... .. . ...
ROW 0F : D-4 0D . ... : ... .. . ... : ... .. . ... : ... .. . ... : ... .. . ...
ROW 10 : A-3 0D . ... : ... .. . ... : A-1 2E . ... : 4-# 03 . ... : ... .. . ...
ROW 11 : ... .. . ... : ... .. . ... : ... .. . ... : 5-# 03 . ... : ... .. . ...
ROW 12 : ... .. . ... : A-1 2E . ... : ... .. . ... : 7-# 03 . ... : ... .. . ...
ROW 13 : ... .. . ... : ... .. . ... : ... .. . ... : 9-# 03 . ... : ... .. . ...
ROW 14 : A-4 13 . ... : --- .. . ... : ... .. . ... : ... .. . ... : ... .. . ...
ROW 15 : ... .. . ... : ... .. . ... : ... .. . ... : ... .. . ... : ... .. . ...
ROW 16 : ... .. . ... : A-2 2E . ... : A-1 2E . ... : B-# 03 . ... : ... .. . ...
ROW 17 : ... .. . ... : ... .. . ... : --- .. . ... : ... .. . ... : ... .. . ...
ROW 18 : ... .. . ... : ... .. . ... : B-1 2E . ... : 3-# 0C . ... : ... .. . ...
ROW 19 : ... .. . ... : ... .. . ... : ... .. . ... : ... .. . ... : ... .. . ...
ROW 1A : ... .. . ... : A-1 2E . ... : ... .. . ... : ... .. . ... : ... .. . ...
ROW 1B : ... .. . ... : ... .. . ... : ... .. . ... : ... .. . ... : ... .. . ...
ROW 1C : B-4 13 . ... : --- .. . ... : ... .. . ... : ... .. . ... : ... .. . ...
ROW 1D : ... .. . ... : ... .. . ... : ... .. . ... : ... .. . ... : ... .. . ...
ROW 1E : ... .. . ... : A-2 2E . ... : D-3 2E . ... : 4-# 03 . ... : ... .. . ...
ROW 1F : ... .. . ... : ... .. . ... : ... .. . ... : 5-# 03 . ... : ... .. . ...
ROW 20 : ... .. . ... : ... .. . ... : C-2 2E . ... : 7-# 03 . ... : ... .. . ...
ROW 21 : ... .. . ... : ... .. . ... : ... .. . ... : ... .. . ... : ... .. . ...
ROW 22 : ... .. . ... : G-2 2E . ... : ... .. . ... : ... .. . ... : ... .. . ...
ROW 23 : ... .. . ... : ... .. . ... : ... .. . ... : 7-# 03 . ... : ... .. . ...
ROW 24 : B-4 2E . ... : --- .. . ... : ... .. . ... : ... .. . ... : ... .. . ...
ROW 25 : E-4 2E . ... : ... .. . ... : ... .. . ... : ... .. . ... : ... .. . ...
ROW 26 : A-4 2E . ... : G-2 2E . ... : ... .. . ... : 8-# 03 . ... : ... .. . ...
ROW 27 : G-4 2E . ... : ... .. . ... : ... .. . ... : ... .. . ... : ... .. . ...
ROW 28 : F#4 2E . ... : ... .. . ... : C-3 2E . ... : 9-# 09 . ... : ... .. . ...
ROW 29 : E-4 2E . ... : ... .. . ... : ... .. . ... : ... .. . ... : ... .. . ...
ROW 2A : D-4 2E . ... : G-2 2E . ... : ... .. . ... : ... .. . ... : ... .. . ...
ROW 2B : E-4 2E . ... : ... .. . ... : ... .. . ... : 5-# 03 . ... : ... .. . ...
ROW 2C : F-4 2E . ... : ... .. . ... : --- .. . ... : ... .. . ... : ... .. . ...
ROW 2D : E-4 2E . ... : ... .. . ... : ... .. . ... : ... .. . ... : ... .. . ...
ROW 2E : ... .. . ... : F#3 2E . ... : ... .. . ... : 2-# 03 . ... : ... .. . ...
ROW 2F : ... .. . ... : ... .. . ... : ... .. . ... : 4-# 03 . ... : ... .. . ...
ROW 30 : ... .. . ... : ... .. . ... : G-2 2E . ... : 5-# 03 . ... : ... .. . ...
ROW 31 : ... .. . ... : ... .. . ... : ... .. . ... : ... .. . ... : ... .. . ...
ROW 32 : ... .. . ... : B-3 2E . ... : ... .. . ... : ... .. . ... : ... .. . ...
ROW 33 : ... .. . ... : ... .. . ... : ... .. . ... : 5-# 03 . ... : ... .. . ...
ROW 34 : D-4 13 . ... : ... .. . ... : --- .. . ... : 7-# 03 . ... : ... .. . ...
ROW 35 : ... .. . ... : ... .. . ... : ... .. . ... : 5-# 03 . ... : ... .. . ...
ROW 36 : ... .. . ... : D-2 2E . ... : ... .. . ... : 7-# 03 . ... : ... .. . ...
ROW 37 : ... .. . ... : ... .. . ... : ... .. . ... : 4-# 03 . ... : ... .. . ...
ROW 38 : ... .. . ... : ... .. . ... : F#3 2E . ... : 3-# 0C . ... : ... .. . ...
ROW 39 : ... .. . ... : ... .. . ... : ... .. . ... : ... .. . ... : ... .. . ...
ROW 3A : ... .. . ... : E-2 2E . ... : ... .. . ... : ... .. . ... : ... .. . ...
ROW 3B : ... .. . ... : ... .. . ... : ... .. . ... : ... .. . ... : ... .. . ...
ROW 3C : E-2 13 . ... : G-3 2E . ... : C#3 2E . ... : 4-# 09 . ... : ... .. . ...
ROW 3D : ... .. . ... : ... .. . ... : ... .. . ... : 5-# 09 . ... : ... .. . ...
ROW 3E : ... .. . ... : C-3 2E . ... : ... .. . ... : 7-# 09 . ... : ... .. . ...
ROW 3F : ... .. . ... : ... .. . ... : ... .. . ... : 7-# 09 . ... : ... .. . ...

TRACK  64   6 150 "herecomesthebride"
COLUMNS : 1 1 1 1 1

ORDER 00 : 00 00 00 00 00
ORDER 01 : 01 01 01 01 01

PATTERN 00
ROW 00 : C-4 2E . ... : C-3 2E . ... : G-3 2E . ... : ... .. . ... : ... .. . ...
ROW 01 : ... .. . ... : ... .. . ... : ... .. . ... : ... .. . ... : ... .. . ...
ROW 02 : ... .. . ... : C-4 2E . ... : ... .. . ... : ... .. . ... : ... .. . ...
ROW 03 : ... .. . ... : ... .. . ... : ... .. . ... : ... .. . ... : ... .. . ...
ROW 04 : ... .. . ... : C-3 2E . ... : ... .. . ... : ... .. . ... : ... .. . ...
ROW 05 : ... .. . ... : ... .. . ... : ... .. . ... : ... .. . ... : ... .. . ...
ROW 06 : ... .. . ... : ... .. . ... : ... .. . ... : ... .. . ... : ... .. . ...
ROW 07 : ... .. . ... : ... .. . ... : ... .. . ... : ... .. . ... : ... .. . ...
ROW 08 : ... .. . ... : C-3 2E . ... : ... .. . ... : ... .. . ... : ... .. . ...
ROW 09 : ... .. . ... : ... .. . ... : ... .. . ... : ... .. . ... : ... .. . ...
ROW 0A : ... .. . ... : ... .. . ... : ... .. . ... : ... .. . ... : ... .. . ...
ROW 0B : ... .. . ... : ... .. . ... : ... .. . ... : ... .. . ... : ... .. . ...
ROW 0C : ... .. . ... : ... .. . ... : ... .. . ... : ... .. . ... : ... .. . ...
ROW 0D : ... .. . ... : ... .. . ... : ... .. . ... : ... .. . ... : ... .. . ...
ROW 0E : ... .. . ... : ... .. . ... : ... .. . ... : ... .. . ... : ... .. . ...
ROW 0F : ... .. . ... : C-3 2E . ... : ... .. . ... : ... .. . ... : ... .. . ...
ROW 10 : ... .. . ... : ... .. . ... : ... .. . ... : ... .. . ... : ... .. . ...
ROW 11 : ... .. . ... : ... .. . ... : ... .. . ... : ... .. . ... : ... .. . ...
ROW 12 : G-2 2E . ... : C-3 2E . ... : C-3 2E . ... : ... .. . ... : ... .. . ...
ROW 13 : ... .. . ... : ... .. . ... : ... .. . ... : ... .. . ... : ... .. . ...
ROW 14 : ... .. . ... : ... .. . ... : ... .. . ... : ... .. . ... : ... .. . ...
ROW 15 : ... .. . ... : ... .. . ... : ... .. . ... : ... .. . ... : ... .. . ...
ROW 16 : ... .. . ... : ... .. . ... : ... .. . ... : ... .. . ... : ... .. . ...
ROW 17 : ... .. . ... : ... .. . ... : ... .. . ... : ... .. . ... : ... .. . ...
ROW 18 : ... .. . ... : ... .. . ... : ... .. . ... : ... .. . ... : ... .. . ...
ROW 19 : ... .. . ... : ... .. . ... : ... .. . ... : ... .. . ... : ... .. . ...
ROW 1A : ... .. . ... : ... .. . ... : ... .. . ... : ... .. . ... : ... .. . ...
ROW 1B : ... .. . ... : ... .. . ... : ... .. . ... : ... .. . ... : ... .. . ...
ROW 1C : ... .. . ... : ... .. . ... : ... .. . ... : ... .. . ... : ... .. . ...
ROW 1D : ... .. . ... : ... .. . ... : ... .. . ... : ... .. . ... : ... .. . ...
ROW 1E : ... .. . ... : F-3 2E . ... : ... .. . ... : ... .. . ... : ... .. . ...
ROW 1F : ... .. . ... : ... .. . ... : ... .. . ... : ... .. . ... : ... .. . ...
ROW 20 : E-3 2E . ... : G-3 2E . ... : G-3 2E . ... : ... .. . ... : ... .. . ...
ROW 21 : ... .. . ... : ... .. . ... : ... .. . ... : ... .. . ... : ... .. . ...
ROW 22 : ... .. . ... : ... .. . ... : ... .. . ... : ... .. . ... : ... .. . ...
ROW 23 : ... .. . ... : ... .. . ... : ... .. . ... : ... .. . ... : ... .. . ...
ROW 24 : ... .. . ... : ... .. . ... : ... .. . ... : ... .. . ... : ... .. . ...
ROW 25 : ... .. . ... : ... .. . ... : ... .. . ... : ... .. . ... : ... .. . ...
ROW 26 : ... .. . ... : ... .. . ... : ... .. . ... : ... .. . ... : ... .. . ...
ROW 27 : ... .. . ... : ... .. . ... : ... .. . ... : ... .. . ... : ... .. . ...
ROW 28 : ... .. . ... : D-4 2E . ... : ... .. . ... : ... .. . ... : ... .. . ...
ROW 29 : ... .. . ... : ... .. . ... : ... .. . ... : ... .. . ... : ... .. . ...
ROW 2A : ... .. . ... : ... .. . ... : ... .. . ... : ... .. . ... : ... .. . ...
ROW 2B : ... .. . ... : ... .. . ... : ... .. . ... : ... .. . ... : ... .. . ...
ROW 2C : ... .. . ... : ... .. . ... : ... .. . ... : ... .. . ... : ... .. . ...
ROW 2D : B-2 2E . ... : ... .. . ... : ... .. . ... : ... .. . ... : ... .. . ...
ROW 2E : ... .. . ... : ... .. . ... : ... .. . ... : ... .. . ... : ... .. . ...
ROW 2F : ... .. . ... : ... .. . ... : ... .. . ... : ... .. . ... : ... .. . ...
ROW 30 : C-2 2E . ... : E-4 2E . ... : C-3 2E . ... : ... .. . ... : ... .. . ...
ROW 31 : ... .. . ... : ... .. . ... : ... .. . ... : ... .. . ... : ... .. . ...
ROW 32 : ... .. . ... : ... .. . ... : ... .. . ... : ... .. . ... : ... .. . ...
ROW 33 : ... .. . ... : ... .. . ... : ... .. . ... : ... .. . ... : ... .. . ...
ROW 34 : ... .. . ... : ... .. . ... : ... .. . ... : ... .. . ... : ... .. . ...
ROW 35 : ... .. . ... : ... .. . ... : ... .. . ... : ... .. . ... : ... .. . ...
ROW 36 : ... .. . ... : ... .. . ... : ... .. . ... : ... .. . ... : ... .. . ...
ROW 37 : ... .. . ... : ... .. . ... : ... .. . ... : ... .. . ... : ... .. . ...
ROW 38 : ... .. . ... : ... .. . ... : ... .. . ... : ... .. . ... : ... .. . ...
ROW 39 : ... .. . ... : ... .. . ... : ... .. . ... : ... .. . ... : ... .. . ...
ROW 3A : ... .. . ... : ... .. . ... : ... .. . ... : ... .. . ... : ... .. . ...
ROW 3B : ... .. . ... : ... .. . ... : ... .. . ... : ... .. . ... : ... .. . ...
ROW 3C : ... .. . ... : ... .. . ... : ... .. . ... : ... .. . ... : ... .. . ...
ROW 3D : ... .. . ... : ... .. . ... : ... .. . ... : ... .. . ... : ... .. . ...
ROW 3E : ... .. . ... : ... .. . ... : ... .. . ... : ... .. . ... : ... .. . ...
ROW 3F : ... .. . ... : ... .. . ... : ... .. . ... : ... .. . ... : ... .. . ...

PATTERN 01
ROW 00 : E-3 2E . ... : C-4 2E . ... : G-3 2E . ... : ... .. . ... : ... .. . ...
ROW 01 : ... .. . ... : ... .. . ... : ... .. . ... : ... .. . ... : ... .. . ...
ROW 02 : ... .. . ... : ... .. . ... : ... .. . ... : ... .. . ... : ... .. . ...
ROW 03 : ... .. . ... : ... .. . ... : ... .. . ... : ... .. . ... : ... .. . ...
ROW 04 : ... .. . ... : ... .. . ... : ... .. . ... : ... .. . ... : ... .. . ...
ROW 05 : ... .. . ... : ... .. . ... : ... .. . ... : ... .. . ... : ... .. . ...
ROW 06 : ... .. . ... : ... .. . ... : ... .. . ... : ... .. . ... : ... .. . ...
ROW 07 : ... .. . ... : ... .. . ... : ... .. . ... : ... .. . ... : ... .. . ...
ROW 08 : C-4 2E . ... : G-3 2E . ... : ... .. . ... : ... .. . ... : ... .. . ...
ROW 09 : ... .. . ... : ... .. . ... : ... .. . ... : ... .. . ... : ... .. . ...
ROW 0A : ... .. . ... : ... .. . ... : ... .. . ... : ... .. . ... : ... .. . ...
ROW 0B : ... .. . ... : ... .. . ... : ... .. . ... : ... .. . ... : ... .. . ...
ROW 0C : ... .. . ... : ... .. . ... : ... .. . ... : ... .. . ... : ... .. . ...
ROW 0D : ... .. . ... : F-4 2E . ... : ... .. . ... : ... .. . ... : ... .. . ...
ROW 0E : ... .. . ... : ... .. . ... : ... .. . ... : ... .. . ... : ... .. . ...
ROW 0F : ... .. . ... : ... .. . ... : ... .. . ... : ... .. . ... : ... .. . ...
ROW 10 : A-3 2E . ... : F-4 2E . ... : F-3 2E . ... : ... .. . ... : ... .. . ...
ROW 11 : ... .. . ... : ... .. . ... : ... .. . ... : ... .. . ... : ... .. . ...
ROW 12 : ... .. . ... : ... .. . ... : ... .. . ... : ... .. . ... : ... .. . ...
ROW 13 : ... .. . ... : ... .. . ... : ... .. . ... : ... .. . ... : ... .. . ...
ROW 14 : ... .. . ... : ... .. . ... : ... .. . ... : ... .. . ... : ... .. . ...
ROW 15 : ... .. . ... : ... .. . ... : ... .. . ... : ... .. . ... : ... .. . ...
ROW 16 : ... .. . ... : ... .. . ... : ... .. . ... : ... .. . ... : ... .. . ...
ROW 17 : ... .. . ... : ... .. . ... : ... .. . ... : ... .. . ... : ... .. . ...
ROW 18 : ... .. . ... : E-4 2E . ... : ... .. . ... : ... .. . ... : ... .. . ...
ROW 19 : ... .. . ... : ... .. . ... : ... .. . ... : ... .. . ... : ... .. . ...
ROW 1A : ... .. . ... : ... .. . ... : ... .. . ... : ... .. . ... : ... .. . ...
ROW 1B : ... .. . ... : ... .. . ... : ... .. . ... : ... .. . ... : ... .. . ...
ROW 1C : ... .. . ... : ... .. . ... : ... .. . ... : ... .. . ... : ... .. . ...
ROW 1D : ... .. . ... : ... .. . ... : ... .. . ... : ... .. . ... : ... .. . ...
ROW 1E : ... .. . ... : D-4 2E . ... : G-3 2E . ... : ... .. . ... : ... .. . ...
ROW 1F : ... .. . ... : ... .. . ... : ... .. . ... : ... .. . ... : ... .. . ...
ROW 20 : E-3 2E . ... : C-4 2E . ... : C-3 2E . ... : ... .. . ... : ... .. . ...
ROW 21 : ... .. . ... : ... .. . ... : ... .. . ... : ... .. . ... : ... .. . ...
ROW 22 : ... .. . ... : ... .. . ... : ... .. . ... : ... .. . ... : ... .. . ...
ROW 23 : ... .. . ... : ... .. . ... : ... .. . ... : ... .. . ... : ... .. . ...
ROW 24 : ... .. . ... : D-4 2E . ... : ... .. . ... : ... .. . ... : ... .. . ...
ROW 25 : ... .. . ... : C-4 2E . ... : ... .. . ... : ... .. . ... : ... .. . ...
ROW 26 : ... .. . ... : B-3 2E . ... : ... .. . ... : ... .. . ... : ... .. . ...
ROW 27 : ... .. . ... : ... .. . ... : ... .. . ... : ... .. . ... : ... .. . ...
ROW 28 : ... .. . ... : ... .. . ... : ... .. . ... : ... .. . ... : ... .. . ...
ROW 29 : ... .. . ... : ... .. . ... : ... .. . ... : ... .. . ... : ... .. . ...
ROW 2A : ... .. . ... : ... .. . ... : ... .. . ... : ... .. . ... : ... .. . ...
ROW 2B : ... .. . ... : ... .. . ... : ... .. . ... : ... .. . ... : ... .. . ...
ROW 2C : ... .. . ... : C-4 2E . ... : F-3 2E . ... : ... .. . ... : ... .. . ...
ROW 2D : ... .. . ... : ... .. . ... : ... .. . ... : ... .. . ... : ... .. . ...
ROW 2E : ... .. . ... : ... .. . ... : ... .. . ... : ... .. . ... : ... .. . ...
ROW 2F : ... .. . ... : ... .. . ... : ... .. . ... : ... .. . ... : ... .. . ...
ROW 30 : B-3 2E . ... : D-4 2E . ... : G-3 2E . ... : ... .. . ... : ... .. . ...
ROW 31 : ... .. . ... : ... .. . ... : ... .. . ... : ... .. . ... : ... .. . ...
ROW 32 : ... .. . ... : ... .. . ... : ... .. . ... : ... .. . ... : ... .. . ...
ROW 33 : ... .. . ... : ... .. . ... : ... .. . ... : ... .. . ... : ... .. . ...
ROW 34 : ... .. . ... : ... .. . ... : ... .. . ... : ... .. . ... : ... .. . ...
ROW 35 : ... .. . ... : ... .. . ... : ... .. . ... : ... .. . ... : ... .. . ...
ROW 36 : ... .. . ... : ... .. . ... : ... .. . ... : ... .. . ... : ... .. . ...
ROW 37 : ... .. . ... : ... .. . ... : ... .. . ... : ... .. . ... : ... .. . ...
ROW 38 : ... .. . ... : ... .. . ... : ... .. . ... : ... .. . ... : ... .. . ...
ROW 39 : ... .. . ... : ... .. . ... : ... .. . ... : ... .. . ... : ... .. . ...
ROW 3A : ... .. . ... : ... .. . ... : ... .. . ... : ... .. . ... : ... .. . ...
ROW 3B : ... .. . ... : ... .. . ... : ... .. . ... : ... .. . ... : ... .. . ...
ROW 3C : ... .. . ... : C-4 2E . ... : C-4 2E . ... : ... .. . ... : ... .. . ...
ROW 3D : ... .. . ... : ... .. . ... : ... .. . ... : ... .. . ... : ... .. . ...
ROW 3E : ... .. . ... : ... .. . ... : ... .. . ... : ... .. . ... : ... .. . ...
ROW 3F : ... .. . ... : ... .. . ... : ... .. . B00 : ... .. . ... : ... .. . ...

# End of export
